<svg width="124" height="56" viewBox="0 0 124 56" fill="none" xmlns="http://www.w3.org/2000/svg">
<path d="M98.455 38.265C107.514 33.4781 109.684 27.4346 106.901 25.734C102.794 23.4318 91.4901 27.5528 92.7925 38.87C92.2323 39.203 91.1083 39.8152 91.1083 39.8152L91.8469 42.0959C91.8469 42.0959 93.4311 41.1471 93.8379 40.8642C95.1652 41.9383 95.8539 42.5291 97.8948 42.5828C102.259 42.683 106.009 37.821 106.009 37.821L104.913 36.1025C104.938 36.0881 100.139 40.7246 98.455 38.265ZM99.6574 31.3264C100.956 29.0242 103.051 27.2305 104.096 27.9466C105.141 28.6626 103.051 32.3002 98.1766 36.1812C97.9733 35.8339 98.3551 33.65 99.6574 31.3264ZM16.4039 42.5685C15.5138 42.5572 14.6629 42.199 14.0312 41.5696C11.8618 39.2889 13.9027 31.5842 14.3345 29.9193C14.345 29.8836 14.3471 29.8459 14.3406 29.8093C14.3341 29.7726 14.3191 29.738 14.297 29.7081C14.2748 29.6782 14.246 29.6539 14.2129 29.6371C14.1798 29.6204 14.1432 29.6116 14.1061 29.6114C14.0602 29.6115 14.0151 29.6233 13.9751 29.6459C13.9351 29.6685 13.9016 29.701 13.8777 29.7403C12.9572 31.6092 7.98331 42.5685 3.5946 42.5685H3.3377C-0.922559 42.1567 -0.358807 36.2672 0.964943 32.6833H7.82988C7.2697 34.2192 7.0913 35.1895 7.0913 35.7051C7.11627 36.0631 7.42312 36.2672 7.70143 36.1168C8.41504 35.7301 9.58894 34.1942 10.6094 32.4291C12.4469 29.1782 14.8447 24.3126 18.9694 12H26.4801C24.2608 18.8598 22.4482 25.0573 21.467 32.1463C21.4537 32.2317 21.4675 32.3192 21.5066 32.3963C21.5456 32.4734 21.6078 32.5362 21.6844 32.5758C21.761 32.6154 21.8481 32.6298 21.9333 32.617C22.0185 32.6042 22.0976 32.5647 22.1592 32.5043C24.3 30.4814 32.1498 13.4822 32.6172 12H40.1707C40.1707 12 32.7456 32.6081 33.3593 36.0631C33.3697 36.1905 33.4195 36.3115 33.5019 36.4091C33.5843 36.5066 33.695 36.5759 33.8186 36.6071C33.9422 36.6383 34.0724 36.6298 34.1909 36.583C34.3095 36.5362 34.4105 36.4533 34.4797 36.3459C34.915 35.8089 35.5287 35.0141 35.9604 34.5271L37.0309 35.6012C34.89 38.2614 31.3933 43.0482 27.9252 42.4861C27.3713 42.3706 26.8629 42.0956 26.4623 41.6949C22.8407 38.5478 27.8895 28.0003 28.7851 25.5156C28.9885 24.9785 29.1669 24.4665 29.2953 24.1586C29.3083 24.1212 29.3122 24.0812 29.3068 24.0419C29.3014 24.0026 29.2868 23.9652 29.2641 23.9327C29.2415 23.9002 29.2115 23.8735 29.1766 23.8549C29.1417 23.8363 29.1029 23.8263 29.0634 23.8257C29.0174 23.8254 28.9722 23.8371 28.9322 23.8597C28.8921 23.8823 28.8586 23.915 28.835 23.9546C28.6566 24.3377 28.1964 25.3366 28.0179 25.6695C25.7915 30.3024 20.6392 42.5685 16.4039 42.5685ZM87.3333 17.2738C85.3219 17.2383 83.368 17.9483 81.8457 19.268L81.8992 21.2908C81.8992 21.2908 84.2969 18.8598 86.7981 19.9088C88.4287 20.5748 89.6526 22.4938 88.7356 25.8485C88.6856 26.0526 88.5821 26.4393 88.5322 26.6434C87.8186 25.1074 85.1639 23.9295 81.4639 26.7436C78.7593 28.7915 78.0707 30.9683 77.539 32.737C76.7719 35.322 76.8254 38.1074 77.4106 39.7758C77.6553 40.4264 78.0342 41.0178 78.5224 41.5114C79.0106 42.005 79.5971 42.3896 80.2436 42.6401C86.3664 44.9708 91.1904 35.4795 92.6676 28.6376C93.6095 24.3126 94.3232 17.3991 87.3333 17.2738ZM84.04 38.0609C83.3514 38.5227 82.1775 38.7268 81.9991 36.6001C81.7707 33.5533 83.9901 29.9694 84.6537 29.1245C85.8026 27.7174 87.3583 27.6423 87.3333 29.8406C87.3084 32.404 85.7491 36.9331 84.04 38.0609ZM65.5682 15.5051C61.9466 14.252 49.1551 18.3228 44.927 32.5293C44.4167 32.6833 41.9441 33.2991 41.9441 33.2991L40.8737 36.217L44.6594 35.0391C44.6594 35.0391 44.249 42.3357 50.6287 42.5577C55.6561 42.3751 58.2822 34.9532 56.6766 29.9086C56.3697 30.0625 52.3378 32.0066 52.3378 32.0066C52.3378 32.0066 53.1799 36.951 51.3959 38.0931C51.3278 38.1412 51.2507 38.1748 51.1692 38.1919C51.0877 38.209 51.0036 38.2091 50.922 38.1924C50.8405 38.1756 50.7632 38.1422 50.695 38.0944C50.6267 38.0465 50.569 37.9852 50.5253 37.9141C50.015 37.198 49.6832 35.3041 50.2469 32.7943C59.4561 27.9824 65.7573 19.5472 66.1426 16.615C66.1891 16.3919 66.1574 16.1595 66.0527 15.9572C65.948 15.755 65.7768 15.5952 65.5682 15.5051V15.5051ZM54.1112 28.0755C53.1573 28.8175 52.1427 29.4774 51.0783 30.0482C51.0783 30.0482 51.56 28.9204 51.9204 28.2795C52.9123 26.6183 57.6578 20.1917 61.6397 19.0138C61.6727 19.0016 61.7083 18.9987 61.7428 19.0053C61.7773 19.012 61.8093 19.028 61.8354 19.0516C61.8615 19.0752 61.8806 19.1055 61.8908 19.1392C61.901 19.1729 61.9018 19.2088 61.8931 19.2429C61.8931 20.6535 56.8443 26.0025 54.1112 28.0755ZM73.0968 38.5729C73.0844 38.61 73.0836 38.65 73.0944 38.6877C73.1052 38.7253 73.1271 38.7587 73.1573 38.7836C73.1875 38.8084 73.2245 38.8235 73.2633 38.8268C73.3022 38.8301 73.3412 38.8214 73.3751 38.802C73.868 38.4765 74.3443 38.1264 74.8023 37.753L75.3125 39.314C75.0057 39.6469 72.5544 41.5946 71.0309 42.3107C69.3753 43.0804 67.8696 42.0565 67.6377 40.8249C67.4093 39.3927 68.1229 37.5238 68.1229 37.5238C68.1229 37.5238 65.4968 40.5456 62.8172 42.0028C62.287 42.3382 61.6804 42.5329 61.0546 42.5685C59.2456 42.5148 58.6818 40.7783 58.8888 39.826C59.1171 38.7018 61.5684 31.1474 61.8717 29.9193C61.8752 29.8861 61.8709 29.8525 61.859 29.8213C61.8471 29.7901 61.828 29.7622 61.8033 29.7398C61.7786 29.7175 61.7489 29.7013 61.7168 29.6927C61.6846 29.6841 61.6509 29.6832 61.6183 29.6902C60.8762 29.8943 58.9387 31.1724 58.9387 31.1724V29.0744C58.9387 29.0744 64.5513 25.2327 65.9535 24.8246C67.2559 24.4665 68.3798 25.2077 68.048 26.6935C67.8946 27.7174 64.2444 36.6001 64.2444 37.7279C64.2405 37.7583 64.244 37.7891 64.2548 37.8178C64.2655 37.8464 64.2831 37.8719 64.3061 37.8921C64.329 37.9123 64.3565 37.9265 64.3862 37.9335C64.4159 37.9404 64.4469 37.9399 64.4764 37.932C65.5218 37.6241 67.4343 35.9879 68.89 33.6571C70.2673 31.4803 71.1843 28.7414 72.3332 25.3366H77.2072C77.2036 25.3616 73.5035 36.704 73.0968 38.5729V38.5729ZM123.995 27.9215C124.099 29.5112 122.593 37.8819 116.47 41.2366C114.658 42.2355 113.434 42.6186 112.335 42.5685C109.734 42.4897 108.51 40.3666 108.228 39.6756C105.245 32.2501 113.969 25.3545 113.969 25.3545H119.021C119.021 25.3545 111.314 31.5269 112.388 37.0047C113.23 40.3308 116.313 38.7197 118.026 34.9568C118.358 34.2121 120.423 29.2713 119.125 29.1961C117.976 29.1173 116.445 31.5519 116.445 31.5519L115.375 29.9122C116.217 28.8381 118.565 26.0204 121.194 25.1253C121.622 25.0036 123.97 24.5167 123.995 27.9215ZM39.3073 38.5227C39.706 38.5227 40.0958 38.6414 40.4273 38.8637C40.7588 39.0859 41.0172 39.4019 41.1698 39.7715C41.3224 40.1411 41.3623 40.5478 41.2845 40.9402C41.2067 41.3326 41.0147 41.6931 40.7328 41.976C40.4508 42.2589 40.0916 42.4515 39.7006 42.5296C39.3095 42.6076 38.9042 42.5676 38.5358 42.4145C38.1674 42.2614 37.8526 42.0021 37.6311 41.6694C37.4096 41.3368 37.2913 40.9457 37.2913 40.5456C37.2894 40.2794 37.3403 40.0155 37.4409 39.7692C37.5416 39.523 37.69 39.2992 37.8776 39.111C38.0651 38.9228 38.2881 38.7738 38.5336 38.6728C38.779 38.5719 39.042 38.5208 39.3073 38.5227V38.5227Z" fill="white"/>
</svg>
