<svg width="129" height="48" viewBox="0 0 129 48" fill="none" xmlns="http://www.w3.org/2000/svg">
<path d="M102.425 35.1122C111.85 30.171 114.106 23.9325 111.211 22.177C106.939 19.8006 95.1792 24.0545 96.5341 35.7368C95.9513 36.0805 94.782 36.7125 94.782 36.7125L95.5504 39.0667C95.5504 39.0667 97.1985 38.0873 97.6217 37.7954C99.0025 38.9041 99.7189 39.5139 101.842 39.5693C106.382 39.6728 110.283 34.6539 110.283 34.6539L109.144 32.88C109.169 32.8652 104.177 37.6512 102.425 35.1122ZM103.676 27.9498C105.027 25.5734 107.206 23.7218 108.293 24.461C109.381 25.2001 107.206 28.9551 102.135 32.9613C101.924 32.6028 102.321 30.3484 103.676 27.9498ZM17.0654 39.5545C16.1393 39.5429 15.2541 39.1731 14.5969 38.5234C12.3401 36.1692 14.4633 28.2159 14.9125 26.4974C14.9234 26.4605 14.9256 26.4216 14.9188 26.3838C14.9121 26.3459 14.8965 26.3102 14.8735 26.2793C14.8504 26.2485 14.8205 26.2234 14.786 26.2061C14.7515 26.1888 14.7135 26.1797 14.6749 26.1795C14.6272 26.1796 14.5802 26.1918 14.5386 26.2151C14.497 26.2384 14.4621 26.272 14.4373 26.3126C13.4796 28.2418 8.30522 39.5545 3.73954 39.5545H3.47228C-0.959759 39.1295 -0.373274 33.05 1.00385 29.3505H8.1456C7.56283 30.936 7.37723 31.9375 7.37723 32.4697C7.40322 32.8393 7.72244 33.05 8.01197 32.8948C8.75436 32.4956 9.97559 30.9101 11.0372 29.0881C12.9488 25.7323 15.4433 20.7098 19.7342 8H27.5479C25.239 15.0811 23.3534 21.4785 22.3326 28.7961C22.3188 28.8843 22.3332 28.9746 22.3738 29.0542C22.4144 29.1338 22.4791 29.1986 22.5588 29.2395C22.6385 29.2804 22.7291 29.2953 22.8177 29.2821C22.9064 29.2688 22.9886 29.2281 23.0527 29.1657C25.2799 27.0776 33.4461 9.53005 33.9324 8H41.7905C41.7905 8 34.066 29.2729 34.7045 32.8393C34.7152 32.9709 34.7671 33.0958 34.8528 33.1965C34.9385 33.2972 35.0537 33.3686 35.1822 33.4008C35.3108 33.433 35.4462 33.4244 35.5696 33.376C35.6929 33.3277 35.798 33.2421 35.87 33.1313C36.3229 32.5769 36.9613 31.7565 37.4105 31.2538L38.524 32.3626C36.2969 35.1085 32.6592 40.0498 29.0512 39.4695C28.475 39.3503 27.9461 39.0665 27.5293 38.6528C23.7617 35.4042 29.0141 24.5164 29.9458 21.9516C30.1573 21.3972 30.3429 20.8687 30.4766 20.5509C30.4901 20.5122 30.4942 20.4709 30.4886 20.4304C30.4829 20.3898 30.4677 20.3512 30.4441 20.3176C30.4206 20.2841 30.3894 20.2566 30.3531 20.2374C30.3168 20.2182 30.2764 20.2078 30.2353 20.2072C30.1875 20.2068 30.1404 20.2189 30.0988 20.2423C30.0571 20.2656 30.0223 20.2994 29.9977 20.3402C29.8121 20.7356 29.3333 21.7668 29.1477 22.1105C26.8315 26.8928 21.4714 39.5545 17.0654 39.5545ZM90.8548 13.4439C88.7623 13.4072 86.7296 14.1402 85.1459 15.5024L85.2016 17.5905C85.2016 17.5905 87.696 15.0811 90.298 16.164C91.9944 16.8514 93.2676 18.8323 92.3136 22.2953C92.2617 22.5059 92.154 22.9051 92.102 23.1157C91.3596 21.5302 88.598 20.3143 84.7487 23.2192C81.9351 25.3332 81.2187 27.5802 80.6656 29.4059C79.8675 32.0743 79.9232 34.9496 80.5319 36.6718C80.7866 37.3434 81.1807 37.9539 81.6886 38.4634C82.1965 38.9729 82.8066 39.3699 83.4792 39.6285C89.8489 42.0344 94.8674 32.2369 96.4042 25.1743C97.3841 20.7098 98.1265 13.5732 90.8548 13.4439ZM87.4287 34.9016C86.7123 35.3783 85.4911 35.589 85.3055 33.3937C85.0679 30.2486 87.3767 26.5491 88.0672 25.6769C89.2624 24.2245 90.8808 24.1468 90.8548 26.4161C90.8288 29.0622 89.2067 33.7374 87.4287 34.9016ZM68.2121 11.6182C64.4445 10.3246 51.1372 14.5267 46.7385 29.1916C46.2077 29.3505 43.6354 29.9862 43.6354 29.9862L42.5218 32.9982L46.4601 31.7823C46.4601 31.7823 46.0333 39.3143 52.6702 39.5435C57.9003 39.355 60.6323 31.6936 58.9619 26.4863C58.6427 26.6452 54.4482 28.652 54.4482 28.652C54.4482 28.652 55.3242 33.7559 53.4683 34.9348C53.3975 34.9845 53.3172 35.0192 53.2324 35.0368C53.1477 35.0544 53.0602 35.0546 52.9753 35.0373C52.8905 35.02 52.8101 34.9855 52.7391 34.9362C52.6681 34.8868 52.608 34.8234 52.5626 34.75C52.0318 34.0109 51.6865 32.0558 52.273 29.4651C61.8535 24.4979 68.4088 15.7907 68.8097 12.7639C68.8581 12.5336 68.825 12.2937 68.7161 12.0849C68.6072 11.8761 68.4291 11.7112 68.2121 11.6182V11.6182ZM56.2931 24.594C55.3007 25.36 54.2453 26.0412 53.1379 26.6304C53.1379 26.6304 53.639 25.4662 54.0139 24.8047C55.0458 23.0899 59.9827 16.4559 64.1252 15.24C64.1595 15.2275 64.1966 15.2244 64.2324 15.2313C64.2683 15.2382 64.3016 15.2547 64.3287 15.2791C64.3559 15.3034 64.3758 15.3347 64.3864 15.3695C64.397 15.4043 64.3978 15.4413 64.3888 15.4766C64.3888 16.9327 59.1364 22.4542 56.2931 24.594ZM76.0442 35.4301C76.0314 35.4684 76.0305 35.5097 76.0417 35.5486C76.053 35.5874 76.0758 35.6219 76.1072 35.6476C76.1386 35.6732 76.1771 35.6888 76.2175 35.6922C76.258 35.6956 76.2985 35.6866 76.3338 35.6666C76.8465 35.3306 77.3421 34.9692 77.8185 34.5837L78.3493 36.1951C78.0301 36.5388 75.48 38.5493 73.895 39.2884C72.1727 40.083 70.6062 39.026 70.365 37.7547C70.1274 36.2764 70.8698 34.3472 70.8698 34.3472C70.8698 34.3472 68.1378 37.4664 65.3502 38.9706C64.7985 39.3169 64.1675 39.5178 63.5165 39.5545C61.6345 39.4991 61.048 37.7067 61.2633 36.7236C61.5009 35.5631 64.051 27.765 64.3665 26.4974C64.3702 26.4631 64.3657 26.4284 64.3533 26.3962C64.341 26.364 64.3211 26.3352 64.2954 26.3121C64.2697 26.289 64.2388 26.2723 64.2054 26.2634C64.1719 26.2545 64.1368 26.2536 64.1029 26.2608C63.3309 26.4715 61.3153 27.7909 61.3153 27.7909V25.6252C61.3153 25.6252 67.1542 21.6596 68.6129 21.2383C69.9678 20.8687 71.1371 21.6337 70.7918 23.1675C70.6322 24.2245 66.8349 33.3937 66.8349 34.5579C66.8308 34.5892 66.8345 34.621 66.8457 34.6506C66.8569 34.6802 66.8752 34.7065 66.899 34.7274C66.9229 34.7482 66.9516 34.7628 66.9825 34.77C67.0134 34.7772 67.0456 34.7767 67.0762 34.7685C68.1638 34.4507 70.1534 32.7617 71.6679 30.3558C73.1007 28.1087 74.0546 25.2815 75.2499 21.7668H80.3204C80.3167 21.7926 76.4674 33.5009 76.0442 35.4301V35.4301ZM128.995 24.4351C129.103 26.076 127.536 34.7168 121.166 38.1797C119.281 39.2108 118.008 39.6063 116.864 39.5545C114.158 39.4732 112.885 37.2816 112.592 36.5684C109.489 28.9033 118.564 21.7852 118.564 21.7852H123.82C123.82 21.7852 115.803 28.1568 116.92 33.8113C117.796 37.2447 121.003 35.5816 122.785 31.6973C123.13 30.9286 125.279 25.8284 123.928 25.7508C122.733 25.6695 121.14 28.1826 121.14 28.1826L120.027 26.49C120.903 25.3812 123.345 22.4727 126.081 21.5487C126.526 21.4231 128.969 20.9204 128.995 24.4351ZM40.8922 35.3783C41.307 35.3783 41.7125 35.5008 42.0574 35.7302C42.4023 35.9597 42.6711 36.2858 42.8298 36.6673C42.9886 37.0489 43.0301 37.4687 42.9492 37.8738C42.8683 38.2789 42.6685 38.6509 42.3752 38.9429C42.0819 39.235 41.7082 39.4338 41.3014 39.5144C40.8946 39.595 40.4729 39.5536 40.0897 39.3956C39.7065 39.2375 39.3789 38.9699 39.1485 38.6265C38.918 38.2831 38.795 37.8794 38.795 37.4664C38.793 37.1917 38.8459 36.9193 38.9506 36.665C39.0553 36.4108 39.2097 36.1798 39.4049 35.9855C39.6 35.7912 39.832 35.6375 40.0873 35.5333C40.3427 35.429 40.6163 35.3763 40.8922 35.3783V35.3783Z" fill="#E31235"/>
</svg>
