<svg width="664" height="200" viewBox="0 0 664 200" fill="none" xmlns="http://www.w3.org/2000/svg">
<g clip-path="url(#clip0)">
<path d="M104.783 171.28C119.522 171.28 132.757 174.396 142.087 179.321C148.803 177.96 156.915 177.172 165.673 177.172C168.932 177.172 172.084 177.297 175.128 177.494C179.964 175.041 189.402 173.214 200.827 172.659C200.809 172.57 200.774 172.498 200.774 172.408C200.774 170.026 204.427 168.039 209.477 167.304C208.188 165.549 207.453 163.687 207.453 161.735C207.453 151.706 226.061 143.593 249.002 143.593C253.514 143.593 257.848 143.916 261.914 144.507C263.794 139.886 270.868 136.43 279.321 136.43C289.206 136.43 297.229 141.14 297.229 146.942C297.229 150.811 293.666 154.177 288.383 155.986C289.762 157.795 290.55 159.729 290.55 161.735C290.55 161.753 290.55 161.771 290.55 161.771C291.338 161.753 292.143 161.735 292.949 161.735C309.282 161.735 322.516 166.534 322.552 172.462C327.459 171.71 333.118 171.28 339.154 171.28C348.377 171.28 356.722 172.283 362.829 173.877C367.073 172.999 372.714 172.462 378.911 172.462C391.071 172.462 401.1 174.504 402.568 177.154C406.759 177.047 411.128 176.993 415.659 176.993C443.883 176.993 466.771 179.07 466.771 181.649C466.771 182.312 465.177 182.957 462.365 183.53C486.434 184.049 503 185.106 503 186.323C503 188.043 469.869 189.422 428.983 189.422C397.643 189.422 370.87 188.598 360.089 187.452C354.322 188.687 347.033 189.422 339.1 189.422C322.678 189.422 308.995 186.27 305.969 182.097C302.029 182.795 297.606 183.207 292.914 183.207C282.097 183.207 272.659 181.094 267.483 177.942C261.914 179.16 255.628 179.858 248.984 179.858C247.515 179.858 246.065 179.823 244.632 179.751C244.954 180.217 245.151 180.682 245.151 181.166C245.151 185.983 228.693 189.887 208.385 189.887C208.044 189.887 207.704 189.869 207.364 189.869C206.665 196.495 188.291 201.814 165.655 201.814C161.93 201.814 158.348 201.653 154.91 201.385C150.361 213.043 129.658 221.872 104.765 221.872C76.5414 221.872 53.672 210.536 53.672 196.567C53.6899 182.598 76.5592 171.28 104.783 171.28ZM373.305 184.264C372.213 184.121 371.228 183.959 370.315 183.798C369.956 184.031 369.545 184.246 369.133 184.479C370.44 184.407 371.837 184.336 373.305 184.264Z" fill="#F5F5F5"/>
<path d="M47.5831 176.223C48.6935 176.223 49.768 176.259 50.8425 176.259C48.783 173.859 47.5831 171.011 47.5831 168.003C47.5831 161.269 53.4213 155.485 61.713 153.085C60.943 151.616 60.4774 150.076 60.4774 148.464C60.4774 140.764 70.2197 134.406 82.7915 133.457C90.1341 120.688 106.825 110.588 127.885 106.272C128.602 97.783 139.884 91.0672 153.781 91.0672C157.417 91.0672 160.855 91.5329 164.007 92.3567C169.505 84.2799 177.582 78.1193 187.02 74.9137C191.855 42.696 219.649 18 253.192 18C281.989 18 306.542 36.1952 315.962 61.715C318.505 59.9062 321.514 58.8496 324.791 58.8496C333.638 58.8496 340.837 66.6757 340.837 76.2926C340.837 82.0234 338.312 87.0736 334.426 90.2435C336.575 94.5773 337.811 99.4127 337.811 104.535C337.811 106.361 337.614 108.17 337.327 109.925C338.652 109.746 339.995 109.674 341.392 109.674C350.615 109.674 358.441 113.435 361.396 118.647C369.742 121.046 376.869 124.664 382.117 129.105C397.41 129.822 409.302 134.603 409.964 140.513C417.235 143.486 421.856 147.999 421.856 153.013C421.856 153.353 421.802 153.694 421.748 154.016C431.956 155.825 439.048 159.89 439.048 164.654C439.048 166.122 438.332 167.519 437.096 168.809C451.53 169.776 461.255 171.567 461.255 173.59C461.255 175.56 452.283 177.279 438.708 178.282C431.007 178.82 421.838 179.178 411.952 179.178C389.119 179.178 369.974 177.423 364.369 175.023C356.525 177.656 347.499 179.178 337.846 179.178C308.046 179.178 283.906 164.905 283.906 147.282C283.906 146.28 283.995 145.277 284.156 144.31C274.897 149.127 264.385 151.867 253.246 151.867C246.853 151.867 240.692 150.954 234.854 149.288C230.932 153.479 226.204 156.881 220.957 159.317C212.754 178.175 184.566 192.054 151.077 192.054C146.439 192.054 141.872 191.768 137.467 191.248C137.467 191.481 137.52 191.714 137.52 191.929C137.52 207.026 118.609 219.257 95.2559 219.257C80.0157 219.257 66.6379 214.046 59.2238 206.202C55.3018 202.083 53.0274 197.212 53.0095 192C51.2365 192.036 49.4635 192.054 47.6189 192.054C21.3112 192.054 -0.00012207 188.508 -0.00012207 184.156C-0.0359497 179.787 21.2753 176.223 47.5831 176.223Z" fill="#EBEBEB"/>
<path d="M204.583 219.223C205.693 219.223 206.768 219.259 207.842 219.259C205.783 216.859 204.583 214.011 204.583 211.003C204.583 204.269 210.421 198.485 218.713 196.085C217.943 194.616 217.477 193.076 217.477 191.465C217.477 183.764 227.219 177.406 239.791 176.457C247.134 163.688 263.825 153.588 284.885 149.272C285.602 140.783 296.884 134.067 310.781 134.067C314.417 134.067 317.855 134.533 321.007 135.357C326.505 127.28 334.582 121.119 344.02 117.914C348.855 85.6961 376.649 61.0001 410.192 61.0001C438.989 61.0001 463.542 79.1952 472.962 104.715C475.505 102.906 478.513 101.85 481.791 101.85C490.638 101.85 497.837 109.676 497.837 119.293C497.837 125.023 495.312 130.074 491.426 133.244C493.575 137.577 494.81 142.413 494.81 147.535C494.81 149.361 494.613 151.17 494.327 152.925C495.652 152.746 496.995 152.674 498.392 152.674C507.615 152.674 515.441 156.435 518.396 161.647C526.741 164.046 533.869 167.664 539.116 172.105C554.41 172.822 566.302 177.603 566.964 183.513C574.235 186.486 578.856 190.999 578.856 196.013C578.856 196.354 578.802 196.694 578.748 197.016C588.956 198.825 596.048 202.89 596.048 207.654C596.048 209.122 595.331 210.519 594.096 211.809C608.53 212.776 618.255 214.567 618.255 216.59C618.255 218.56 609.282 220.28 595.708 221.282C588.007 221.82 578.838 222.178 568.952 222.178C546.119 222.178 526.974 220.423 521.369 218.023C513.525 220.656 504.499 222.178 494.846 222.178C465.046 222.178 440.905 207.905 440.905 190.283C440.905 189.28 440.995 188.277 441.156 187.31C431.897 192.127 421.385 194.867 410.246 194.867C403.852 194.867 397.692 193.954 391.853 192.288C387.931 196.479 383.204 199.882 377.956 202.317C369.754 221.175 341.566 235.054 308.077 235.054C303.439 235.054 298.872 234.768 294.466 234.248C294.466 234.481 294.52 234.714 294.52 234.929C294.52 250.026 275.608 262.257 252.256 262.257C237.015 262.257 223.638 257.046 216.223 249.202C212.301 245.083 210.027 240.212 210.009 235C208.236 235.036 206.463 235.054 204.619 235.054C178.311 235.054 157 231.508 157 227.156C156.964 222.787 178.275 219.223 204.583 219.223Z" fill="#EBEBEB"/>
<path d="M320.352 137.447C321.379 137.868 322.36 138.309 323.354 138.716C322.359 135.715 322.329 132.625 323.471 129.841C326.025 123.611 333.621 120.473 342.204 121.399C342.048 119.748 342.202 118.146 342.813 116.655C345.735 109.53 357.16 107.343 369.153 111.235C380.79 102.206 400.065 99.1924 421.189 103.189C425.072 95.6064 438.059 93.6729 450.917 98.945C454.281 100.324 457.285 102.059 459.889 104.017C468.04 98.6302 477.85 95.9942 487.799 96.6086C504.495 68.6338 539.58 56.3281 570.616 69.0533C597.26 79.978 613.075 106.128 612.109 133.313C615.148 132.604 618.333 132.768 621.365 134.012C629.551 137.368 633.243 147.34 629.594 156.238C627.42 161.54 623.168 165.255 618.37 166.714C618.714 171.539 618.023 176.482 616.08 181.221C615.387 182.911 614.519 184.509 613.588 186.025C614.882 186.362 616.152 186.805 617.444 187.335C625.978 190.834 631.792 197.282 632.549 203.225C639.36 208.612 644.583 214.663 647.753 220.763C661.632 227.228 670.82 236.163 669.191 241.882C674.791 247.391 677.354 253.32 675.451 257.959C675.322 258.274 675.143 258.569 674.971 258.847C683.73 264.393 688.749 270.844 686.942 275.252C686.385 276.611 685.192 277.631 683.56 278.356C696.548 284.726 704.866 290.073 704.099 291.945C703.351 293.768 694.398 291.955 681.457 287.733C674.128 285.308 665.509 282.161 656.362 278.411C635.235 269.749 618.188 260.862 613.912 256.515C605.656 255.975 596.727 253.959 587.796 250.297C560.224 238.992 543.302 216.628 549.987 200.323C550.368 199.395 550.831 198.501 551.347 197.667C540.953 198.612 530.187 197.159 519.881 192.934C513.965 190.508 508.612 187.326 503.842 183.57C498.623 185.96 492.958 187.314 487.179 187.577C472.436 201.914 441.089 204.062 410.104 191.357C405.812 189.597 401.695 187.6 397.816 185.448C397.728 185.663 397.689 185.899 397.608 186.098C391.88 200.066 369.742 204.209 348.135 195.35C334.034 189.568 323.634 179.671 319.749 169.601C317.683 164.302 317.427 158.932 319.387 154.103C317.733 153.464 316.086 152.808 314.379 152.108C290.038 142.128 271.665 130.762 273.316 126.735C274.941 122.679 296.011 127.466 320.352 137.447Z" fill="#EBEBEB"/>
<path d="M59.1879 206.202C66.6021 214.046 79.9798 219.257 95.2201 219.257C118.573 219.257 137.484 207.026 137.484 191.929C137.484 191.696 137.431 191.463 137.431 191.248C141.836 191.768 146.403 192.054 151.041 192.054C184.53 192.054 212.719 178.157 220.921 159.317C226.168 156.882 230.896 153.479 234.818 149.288C240.656 150.954 246.817 151.867 253.21 151.867C264.349 151.867 274.862 149.109 284.12 144.31C283.941 145.277 283.87 146.28 283.87 147.283C283.87 164.905 308.028 179.178 337.811 179.178C347.463 179.178 356.489 177.656 364.333 175.023C369.957 177.423 389.083 179.178 411.916 179.178C421.802 179.178 430.971 178.838 438.672 178.282C433.461 172.892 424.614 165.137 415.785 163.615C401.923 161.215 394.76 169.346 394.76 169.346C394.76 169.346 397.16 137.325 368.506 139.707C344.49 141.713 347.965 157.473 349.72 162.505C348.233 159.317 343.505 152.512 331.274 155.449C322.642 157.544 319.615 162.63 318.612 166.821C318.433 159.998 316.643 150.023 307.867 149.718C304.769 149.611 302.369 149.951 300.507 150.488C303.748 145.581 306.327 137.54 303.086 125.362C296.907 101.992 278.73 97.6935 263.955 96.7085C249.145 95.7594 243.414 102.923 235.301 112.468C230.663 117.93 229.678 127.314 229.678 134.335C226.186 132.365 218.038 132.15 200.433 137.307C158.545 149.539 174.681 176.635 175.111 177.387C174.287 176.76 156.951 163.776 135.497 172.176C116.388 179.643 117.158 194.006 118.645 198.215C116.299 195.815 108.866 191.195 95.3813 197.964C79.4247 205.933 90.0803 215.013 92.8561 217.108C88.8625 214.512 66.7991 200.471 59.1879 206.202Z" fill="#F5F5F5"/>
<path d="M285 231.578C292.414 239.422 305.792 244.633 321.032 244.633C344.385 244.633 363.296 232.402 363.296 217.305C363.296 217.072 363.243 216.839 363.243 216.624C367.648 217.144 372.215 217.43 376.853 217.43C410.342 217.43 438.53 203.533 446.733 184.693C451.98 182.258 456.708 178.855 460.63 174.664C466.468 176.33 472.628 177.243 479.022 177.243C490.161 177.243 500.673 174.485 509.932 169.686C509.753 170.653 509.682 171.656 509.682 172.659C509.682 190.281 533.84 204.554 563.622 204.554C573.275 204.554 582.301 203.032 590.145 200.399C595.768 202.799 614.895 204.554 637.728 204.554C647.614 204.554 656.783 204.214 664.484 203.658C659.272 198.268 650.425 190.513 641.597 188.991C627.735 186.591 620.572 194.722 620.572 194.722C620.572 194.722 622.972 162.701 594.318 165.083C570.302 167.089 573.777 182.849 575.532 187.881C574.045 184.693 569.317 177.888 557.086 180.825C548.454 182.92 545.427 188.006 544.424 192.197C544.245 185.374 542.454 175.399 533.679 175.094C530.581 174.987 528.181 175.327 526.319 175.864C529.56 170.957 532.139 162.916 528.897 150.738C522.719 127.368 504.542 123.069 489.767 122.085C474.957 121.135 469.226 128.299 461.113 137.844C456.475 143.306 455.49 152.69 455.49 159.711C451.998 157.741 443.849 157.526 426.245 162.683C384.357 174.915 400.493 202.011 400.922 202.763C400.099 202.136 382.763 189.152 361.308 197.552C342.2 205.019 342.97 219.382 344.456 223.591C342.11 221.191 334.678 216.571 321.193 223.34C305.236 231.309 315.892 240.389 318.668 242.484C314.674 239.888 292.611 225.847 285 231.578Z" fill="#F5F5F5"/>
<path d="M205.878 104.66C205.878 104.66 185.82 96.0638 169.344 101.795C152.868 107.525 152.152 130.448 152.152 130.448C152.152 130.448 163.631 96.422 205.878 104.66Z" fill="#F5F5F5"/>
<path d="M122.8 159.46C122.8 159.46 114.956 119.417 152.17 130.448C152.17 130.448 127.635 124.7 122.8 159.46Z" fill="#F5F5F5"/>
<path d="M232.383 36.2668C232.383 36.2668 201.222 47.7284 200.147 71.0096C199.073 94.2908 205.878 104.678 205.878 104.678C205.878 104.678 190.118 56.3245 232.383 36.2668Z" fill="#F5F5F5"/>
<path d="M303.999 110.391C296.68 110.391 290.747 104.457 290.747 97.1383C290.747 89.8192 296.68 83.8859 303.999 83.8859C311.318 83.8859 317.251 89.8192 317.251 97.1383C317.251 104.457 311.318 110.391 303.999 110.391Z" fill="#F5F5F5"/>
<path d="M298.089 85.1395C294.034 85.1395 290.747 81.8522 290.747 77.797C290.747 73.7418 294.034 70.4545 298.089 70.4545C302.144 70.4545 305.432 73.7418 305.432 77.797C305.432 81.8522 302.144 85.1395 298.089 85.1395Z" fill="#F5F5F5"/>
<path d="M208.883 77.6297L175.004 70.6019L171.165 69.7948L171.835 67.6884L172.681 65.7001L175.083 66.271L201.402 72.6886L202.525 70.1294L208.824 71.5468L208.883 77.6297Z" fill="white"/>
<path d="M209.336 78.1809L170.614 70.1491L171.421 67.5309L172.425 65.1883L201.147 72.1964L202.249 69.6373L209.257 71.2121L209.336 78.1809ZM171.736 69.4601L208.43 77.0785L208.391 71.9011L202.8 70.6413L201.678 73.2201L172.957 66.212L172.248 67.8262L171.736 69.4601Z" fill="#A4A4A4"/>
<path d="M204.788 70.6412L204.04 73.3579L201.402 72.6885L202.524 70.1294L204.788 70.6412Z" fill="#A4A4A4"/>
<path d="M204.355 73.8894L200.792 73.0035L202.269 69.6176L205.359 70.3066L204.355 73.8894ZM202.032 72.3933L203.725 72.8067L204.237 70.9759L202.78 70.6412L202.032 72.3933Z" fill="#A4A4A4"/>
<path d="M175.004 70.6019L171.165 69.7948L171.835 67.6884L172.681 65.7001L175.083 66.271V66.2907L175.004 70.6019Z" fill="#A4A4A4"/>
<path d="M197.957 109.52L197.15 111.154L195.713 114.954L194.749 114.875L191.067 114.619L176.992 109.639L180.378 105.977L197.957 109.52Z" fill="#A4A4A4"/>
<path d="M197.957 109.521L197.15 111.154L195.713 114.934L194.768 114.875C194.749 114.875 196.343 110.761 197.957 109.521Z" fill="white"/>
<path d="M190.989 114.934L190.949 114.914L176.402 109.757L180.26 105.623L198.43 109.284L197.446 111.292L195.91 115.288L190.989 114.934ZM177.602 109.481L191.126 114.284L195.477 114.599L196.855 111.017L197.465 109.776L180.516 106.351L177.602 109.481Z" fill="#A4A4A4"/>
<path d="M191.934 112.237C191.56 113.635 182.189 137.021 180.654 141.037C179.118 145.053 177.799 146.687 174.236 149.541C166.539 148.892 161.047 143.951 159.295 140.525C160.83 138.714 163.567 134.954 165.83 130.84C166.756 129.167 168.35 125.663 169.925 122.1C172.209 116.942 174.413 111.686 174.413 111.686C175.949 110.308 177.799 109.54 179.689 109.186C185.674 108.123 192.229 111.174 191.934 112.237Z" fill="white"/>
<path d="M171.815 149.66C165.004 148.282 160.417 143.754 158.881 140.742L158.744 140.486L158.94 140.27C160.22 138.754 163.015 135.033 165.417 130.663C166.185 129.246 167.563 126.332 169.492 121.962C171.736 116.883 173.961 111.607 173.98 111.568L174.02 111.469L174.098 111.41C175.575 110.072 177.425 109.206 179.591 108.812C184.807 107.847 190.693 110.013 192.032 111.469C192.327 111.784 192.426 112.099 192.347 112.395C192.091 113.3 188.37 122.71 185.083 131.017C183.233 135.702 181.618 139.758 181.047 141.234C179.532 145.23 178.232 146.943 174.492 149.935L174.354 150.053L174.177 150.034C173.37 149.935 172.583 149.817 171.815 149.66ZM159.826 140.584C161.519 143.636 166.697 148.4 174.079 149.089C177.563 146.293 178.784 144.659 180.221 140.88C180.791 139.403 182.386 135.348 184.256 130.643C187.327 122.887 191.146 113.28 191.481 112.158C191.107 111.292 185.3 108.615 179.768 109.639C177.799 109.993 176.126 110.78 174.787 111.962C174.472 112.69 172.425 117.572 170.319 122.277C168.37 126.667 166.992 129.62 166.204 131.037C164.157 134.817 161.578 138.498 159.826 140.584Z" fill="#A4A4A4"/>
<path d="M161.834 143.793L161.125 143.262C163.881 139.62 166.854 135.663 167.838 134.029C168.783 132.474 179.394 109.245 179.492 109.009L180.299 109.383C179.866 110.347 169.571 132.907 168.586 134.502C167.602 136.155 164.767 139.955 161.834 143.793Z" fill="#A4A4A4"/>
<path d="M166.539 104.56L168.134 101.056L164.393 100.504L164.216 103.516L166.539 104.56Z" fill="#A4A4A4"/>
<path d="M164.492 101.272L164.216 103.516L166.106 104.461L199.237 111.607L201.973 107.887L168.134 101.056L164.492 101.272Z" fill="white"/>
<path d="M199.414 112.099L165.968 104.894L163.744 103.772L164.118 100.839L168.173 100.603L202.741 107.591L199.414 112.099ZM166.263 104.048L199.04 111.115L201.206 108.182L168.114 101.508L164.905 101.686L164.708 103.26L166.263 104.048Z" fill="#A4A4A4"/>
<path d="M203.292 107.138L208.371 81.9605L210.281 80.6809L220.753 83.5353C221.757 83.8109 222.584 84.5393 222.939 85.5236C223.923 88.2599 223.194 93.2207 222.486 97.3941C221.561 102.788 218.332 108.871 216.108 109.166C213.903 109.442 203.292 107.138 203.292 107.138Z" fill="white"/>
<path d="M220.813 103.064C220.025 104.934 219.08 106.587 218.155 107.69C217.446 108.536 216.757 109.068 216.127 109.146C214.06 109.422 204.729 107.453 203.45 107.178C203.351 107.158 203.292 107.139 203.292 107.139L203.312 107.06C204.611 105.642 206.639 102.906 207.977 98.5162C210.084 91.6262 210.005 89.7757 210.005 89.7757L210.438 89.6773C210.222 92.0986 210.123 96.5279 209.277 100.308C209.277 100.327 217.879 102.04 220.813 103.064Z" fill="#DFDEE2"/>
<path d="M220.458 103.969L215.95 102.709L220.557 103.536L220.458 103.969Z" fill="white"/>
<path d="M218.155 107.69C217.446 108.536 216.757 109.068 216.127 109.146C214.06 109.422 204.729 107.453 203.45 107.178C203.666 107.02 204.001 106.942 204.513 106.961C206.481 107.06 209.296 107.434 213.903 108.261C214.808 107.552 216.679 107.434 218.155 107.69Z" fill="white"/>
<path d="M205.556 108.064C204.257 107.808 203.332 107.611 203.213 107.572L202.78 107.473L207.977 81.6849L210.222 80.1888L220.891 83.0826C222.053 83.3976 222.978 84.244 223.391 85.3464C224.415 88.1615 223.706 93.0632 222.958 97.4531C222.072 102.67 218.864 109.245 216.206 109.58C214.552 109.796 208.824 108.733 205.556 108.064ZM203.824 106.804C207.584 107.611 214.434 108.93 216.068 108.713C217.879 108.477 221.108 102.906 222.053 97.3153C222.584 94.2444 223.549 88.4962 222.525 85.6614C222.23 84.8346 221.521 84.2047 220.635 83.9488L210.359 81.1534L208.765 82.2164L203.824 106.804Z" fill="#A4A4A4"/>
<path d="M215.438 87.4725L223.549 88.9883L223.332 89.8741L215.438 87.4725Z" fill="#DFDEE2"/>
<path d="M212.958 91.39L223.116 93.3388L222.899 94.205L212.958 91.39Z" fill="#DFDEE2"/>
<path d="M212.643 94.9137L222.801 96.8626L222.584 97.7288L212.643 94.9137Z" fill="#DFDEE2"/>
<path d="M211.541 98.4177L221.679 100.701L221.442 101.567L211.541 98.4177Z" fill="#DFDEE2"/>
<path d="M221.128 88.8702C221.305 89.756 222.978 90.6616 223.372 90.8584L223.411 89.5198L223.293 89.3033L221.128 88.8702Z" fill="#DFDEE2"/>
<path d="M220.773 93.2404C220.97 94.0278 222.269 94.8349 222.86 95.0515L223.037 93.7719L220.773 93.2404Z" fill="#DFDEE2"/>
<path d="M220.183 96.7051C220.36 97.5122 221.364 98.398 222.191 98.9886L222.525 97.2563L220.183 96.7051Z" fill="#DFDEE2"/>
<path d="M218.746 100.367C218.785 101.095 219.454 101.961 220.97 102.67L221.502 101.095L218.746 100.367Z" fill="#DFDEE2"/>
<path d="M209.06 101.764L208.903 102.552L214.218 103.615C214.218 103.615 210.143 101.902 209.06 101.764Z" fill="white"/>
<path d="M214.198 81.5865C214.395 82.3739 214.513 83.1613 214.612 83.9684C214.671 84.7756 214.71 85.563 214.69 86.3701C214.671 87.9646 214.493 89.5592 214.218 91.134C213.942 92.7089 213.568 94.2444 213.115 95.7602C212.879 96.5082 212.643 97.276 212.387 98.024C212.249 98.3981 212.131 98.7721 211.974 99.1461C211.836 99.5201 211.698 99.8745 211.541 100.249C211.737 99.4808 211.974 98.7327 212.131 97.965C212.328 97.1972 212.505 96.4295 212.682 95.6617C213.017 94.1263 213.312 92.5908 213.529 91.0356C213.745 89.4804 213.883 87.9253 213.903 86.3701C213.923 84.8149 213.804 83.2598 213.509 81.7636L214.198 81.5865Z" fill="#A4A4A4"/>
<path d="M206.245 102.749C205.162 104.914 203.804 106.922 202.072 108.241L165.594 101.449C165.594 101.449 165.496 101.449 165.319 101.43C164.689 101.351 163.173 101.115 162.937 100.583C154.275 101.174 131.558 101.626 110.71 112.749L126.4 34.9117C141.302 53.239 161.815 64.0465 169.571 67.9443C170.122 67.4324 171.185 67.5309 171.185 67.5309L208.411 76.1335C212.151 79.0864 209.572 92.197 209.572 92.197C209.572 92.197 208.686 97.8468 206.245 102.749Z" fill="white"/>
<path d="M110.061 113.576L126.144 33.888L126.735 34.6164C137.01 47.2546 151.401 58.2786 169.531 67.4325C170.22 67.0191 171.126 67.0781 171.244 67.0978H171.283H171.303L208.627 75.7201L208.706 75.7792C212.604 78.8699 210.143 91.7246 210.025 92.2758C209.985 92.4924 209.1 98.0043 206.678 102.886L206.658 103.005L206.599 103.044C205.359 105.524 203.922 107.394 202.347 108.595L202.19 108.713L201.993 108.674L165.535 101.882C165.496 101.882 165.397 101.863 165.259 101.863H165.24C163.606 101.666 162.976 101.312 162.7 101.036C162.051 101.075 161.322 101.115 160.535 101.174C150.613 101.764 129.943 102.965 110.888 113.123L110.061 113.576ZM126.656 35.9157L111.321 111.902C130.317 102.06 150.653 100.859 160.496 100.288C161.381 100.229 162.188 100.189 162.897 100.15L163.212 100.13L163.35 100.406C163.429 100.544 164.039 100.839 165.378 100.997H165.397C165.535 101.016 165.633 101.016 165.633 101.016H165.673L201.954 107.768C203.371 106.627 204.67 104.894 205.812 102.611L205.832 102.493L205.891 102.453C208.233 97.6894 209.119 92.1774 209.139 92.1183C209.828 88.5552 211.009 78.9289 208.214 76.5469L171.126 67.9837C170.87 67.964 170.201 67.9837 169.866 68.2789L169.63 68.4955L169.354 68.3577C151.361 59.3023 136.991 48.3964 126.656 35.9157Z" fill="#A4A4A4"/>
<path d="M201.796 106.804C202.505 106.036 203.607 104.619 204.532 103.201C202.485 102.65 195.831 100.977 187.111 99.8155C177.11 98.4768 171.086 98.6146 168.882 98.4768C168.409 99.1658 167.897 99.7958 167.366 100.249C166.578 100.898 165.456 101.371 165.319 101.449C165.496 101.469 165.594 101.469 165.594 101.469L202.072 108.261C203.804 106.942 205.182 104.934 206.245 102.768C205.517 103.91 203.607 106.036 201.796 106.804Z" fill="#DFDEE2"/>
<path d="M187.229 99.2249C193.508 100.111 202.308 102.256 204.769 102.847C205.221 102.138 205.556 101.528 205.812 100.918C190.516 96.8429 178.272 95.4649 170.89 94.7169C170.89 94.7169 170.299 96.1342 169.433 97.6107C172.268 97.591 179.984 98.2012 187.229 99.2249Z" fill="#DFDEE2"/>
<path d="M117.758 105.052C130.967 100.465 151.598 96.5476 167.563 98.3193L165.082 101.39C165.082 101.39 163.606 101.508 162.917 100.563C162.917 100.563 149.491 100.898 137.581 103.398C125.652 105.898 114.195 110.524 111.242 112.434C111.242 112.434 108.762 114.284 106.301 114.088C103.84 113.91 101.399 111.41 101.399 111.41C101.399 111.41 101.478 110.859 102.127 111.528C102.777 112.198 104.135 113.123 106.34 113.103C108.525 113.084 110.612 110.544 111.833 108.93C113.053 107.316 114.175 106.213 117.758 105.052Z" fill="#DFDEE2"/>
<path d="M114.785 108.438C116.222 107.611 117.719 106.942 119.234 106.312C120.75 105.701 122.305 105.17 123.88 104.717C124.274 104.599 124.668 104.481 125.061 104.382C125.455 104.284 125.849 104.166 126.242 104.068C127.03 103.871 127.837 103.693 128.644 103.536C130.239 103.201 131.873 102.985 133.487 102.827C131.892 103.182 130.317 103.536 128.762 103.989C127.207 104.422 125.652 104.914 124.136 105.446C122.62 105.977 121.124 106.587 119.628 107.217C118.152 107.827 116.656 108.516 115.238 109.205L114.785 108.438Z" fill="white"/>
<path d="M126.341 85.2283C121.124 103.103 112.443 115.446 105.336 114.009C97.0486 112.336 94.0563 92.5514 98.6431 69.8144C103.23 47.0774 113.663 30.0099 121.951 31.6635C130.042 33.2975 133.093 52.1957 128.959 74.2634C128.861 74.7949 128.762 75.3264 128.644 75.8579L126.341 85.2283Z" fill="white"/>
<path d="M126.341 85.2283C125.908 87.0591 125.416 88.8702 124.845 90.6616C124.707 91.1144 124.569 91.5671 124.412 92.0002L123.939 93.3388L123.447 94.6578L122.916 95.9767C121.498 99.4611 119.786 102.867 117.679 106.016C116.616 107.591 115.455 109.107 114.136 110.485C113.466 111.174 112.758 111.824 111.99 112.414C111.222 113.005 110.376 113.517 109.47 113.91C108.565 114.304 107.58 114.56 106.557 114.58C106.045 114.58 105.533 114.521 105.041 114.422C104.549 114.304 104.057 114.127 103.604 113.891C102.698 113.418 101.911 112.769 101.261 112.021C100.612 111.273 100.06 110.465 99.6077 109.619C98.6825 107.926 98.0525 106.095 97.5604 104.264C97.0682 102.414 96.7336 100.544 96.4974 98.6737C96.0249 94.9137 95.9265 91.1144 96.0446 87.3544C96.3005 79.8148 97.4423 72.3145 99.2534 64.9915C100.139 61.3299 101.222 57.7077 102.501 54.1643C103.781 50.6209 105.277 47.1365 107.069 43.79C107.974 42.1167 108.939 40.4828 110.021 38.9276C111.104 37.3724 112.305 35.8763 113.703 34.5377C114.392 33.8684 115.14 33.2384 115.947 32.6872C116.754 32.136 117.64 31.6833 118.585 31.3683C119.53 31.0533 120.573 30.9155 121.597 31.0533C122.62 31.1911 123.605 31.5848 124.431 32.1557C125.278 32.7266 125.967 33.455 126.577 34.2424C127.168 35.0298 127.66 35.8763 128.093 36.7425C128.939 38.4945 129.53 40.3253 129.963 42.1757C130.396 44.0262 130.711 45.916 130.908 47.7862C131.124 49.676 131.223 51.5658 131.282 53.4556C131.459 61.0149 130.632 68.5939 128.624 75.858C129.097 72.1177 129.55 68.3971 129.845 64.6765C130.14 60.9559 130.337 57.2156 130.219 53.4753C130.16 51.6052 130.042 49.7547 129.825 47.9043C129.609 46.0538 129.313 44.223 128.88 42.4316C128.447 40.6402 127.896 38.8685 127.089 37.2346C126.695 36.4078 126.242 35.6401 125.691 34.9117C125.16 34.203 124.53 33.5534 123.821 33.0809C123.112 32.5888 122.305 32.2738 121.459 32.1557C120.612 32.0376 119.746 32.1557 118.919 32.4116C117.246 32.9628 115.75 34.0652 114.431 35.3054C113.112 36.5653 111.931 38.0024 110.868 39.5182C109.805 41.034 108.821 42.6285 107.935 44.2624C106.143 47.5302 104.667 50.9752 103.387 54.4793C102.108 57.9833 101.025 61.5858 100.139 65.208C98.3675 72.472 97.2651 79.9132 97.0289 87.3938C96.9107 91.134 97.0289 94.8743 97.5013 98.5555C97.7375 100.406 98.0722 102.237 98.5447 104.028C99.0171 105.82 99.6274 107.572 100.513 109.166C100.946 109.973 101.458 110.721 102.049 111.391C102.639 112.06 103.328 112.631 104.096 113.025C104.49 113.221 104.883 113.359 105.297 113.458C105.71 113.556 106.143 113.595 106.576 113.595C107.443 113.595 108.309 113.379 109.116 113.025C109.923 112.67 110.71 112.198 111.439 111.647C112.167 111.095 112.836 110.465 113.486 109.835C114.766 108.517 115.907 107.04 116.951 105.505C117.994 103.969 118.939 102.355 119.805 100.701C120.691 99.0674 121.498 97.3744 122.266 95.6618C123.762 92.2758 125.081 88.7718 126.341 85.2283Z" fill="#A4A4A4"/>
<path d="M124.923 55.5227C124.923 55.5227 118.683 60.6803 116.852 63.8694C115.041 67.0585 109.647 73.0035 108.899 83.5551C108.132 94.1066 114.018 100.997 114.018 100.997C114.018 100.997 118.171 91.4293 120.415 85.6024C120.415 85.6024 119.963 89.0671 118.821 91.6656C117.679 94.2641 118.486 93.9097 118.486 93.9097C118.486 93.9097 121.124 87.0591 122.246 82.9448C123.368 78.8699 124.707 79.362 124.923 55.5227Z" fill="#DFDEE2"/>
<path d="M114.785 63.456L125.494 65.6214C125.494 65.6214 125.12 73.9091 121.656 84.6771L110.947 82.5117L114.785 63.456Z" fill="white"/>
<path d="M121.577 85.1112L110.868 82.9458C110.632 82.9064 110.474 82.6702 110.514 82.4142L114.352 63.3585C114.392 63.1223 114.628 62.9648 114.884 63.0042L125.593 65.1696C125.809 65.2089 125.967 65.4058 125.947 65.6223C125.947 65.7011 125.534 74.0872 122.089 84.7962C122.03 85.0324 121.793 85.1506 121.577 85.1112ZM111.478 82.1583L121.36 84.1663C124.254 75.0321 124.924 67.709 125.042 65.9964L115.14 64.0081L111.478 82.1583Z" fill="#A4A4A4"/>
<path d="M115.612 73.535C114.549 78.7911 112.462 82.8069 110.947 82.5116C109.431 82.2164 109.077 77.6887 110.14 72.4326C111.203 67.1765 113.289 63.1606 114.805 63.4559C116.301 63.7512 116.675 68.2789 115.612 73.535Z" fill="white"/>
<path d="M110.868 82.9448C108.781 82.5314 108.702 77.295 109.706 72.3342C110.71 67.3734 112.817 62.5898 114.903 63.0032C116.99 63.4166 117.069 68.653 116.065 73.6138C115.041 78.5745 112.955 83.3779 110.868 82.9448ZM114.707 63.889C113.742 63.6922 111.714 66.8812 110.573 72.5114C109.431 78.1415 110.08 81.8817 111.045 82.0589C112.01 82.2558 114.037 79.0667 115.179 73.4366C116.301 67.8065 115.671 64.0859 114.707 63.889Z" fill="#A4A4A4"/>
<path d="M110.317 71.6058C110.73 69.9719 112.285 69.6766 113.211 70.031C114.136 70.3853 115.317 72.5114 112.994 80.8975C112.994 80.8975 112.443 82.0196 111.813 82.2755C111.183 82.5314 109.391 77.1966 109.903 73.4957L110.317 71.6058Z" fill="#DFDEE2"/>
<path d="M115.199 83.3778C118.427 82.0786 121.971 78.0824 123.014 74.2634C124.057 70.4443 124.116 66.5072 123.112 65.1489L125.514 65.641C125.514 65.641 124.746 75.4051 121.675 84.6968L115.199 83.3778Z" fill="#DFDEE2"/>
<path d="M116.156 70.0266L124.029 71.6153L123.897 72.2714L116.024 70.6827L116.156 70.0266Z" fill="#A4A4A4"/>
<path d="M121.006 73.2003C120.711 72.846 120.475 72.4917 120.179 72.157C119.904 71.8223 119.648 71.4877 119.352 71.1727C119.077 70.8577 118.782 70.5428 118.486 70.2278C118.191 69.9128 117.896 69.5979 117.581 69.2435C118.033 69.3616 118.447 69.5782 118.821 69.8341C119.195 70.09 119.549 70.405 119.845 70.7396C120.16 71.0743 120.415 71.468 120.612 71.8814C120.829 72.2948 120.967 72.7476 121.006 73.2003Z" fill="white"/>
<path d="M121.183 72.7082C120.927 72.3342 120.711 71.9602 120.435 71.6058C120.179 71.2515 119.904 70.9168 119.608 70.6019C119.313 70.2869 119.018 69.9719 118.723 69.6569C118.408 69.342 118.093 69.0467 117.758 68.7514C118.191 68.9089 118.585 69.1254 118.939 69.401C119.313 69.6766 119.648 69.9719 119.943 70.3066C120.238 70.6412 120.514 71.0153 120.73 71.4287C120.967 71.8224 121.104 72.2555 121.183 72.7082Z" fill="#A4A4A4"/>
<path d="M121.774 78.8502C121.577 79.047 121.439 79.0076 121.282 78.988L120.829 78.9092L119.943 78.7714C119.352 78.673 118.762 78.5746 118.171 78.4564C117.581 78.3383 116.99 78.2005 116.4 78.0627L116.183 78.0037C116.183 78.0037 116.144 78.0037 116.163 78.0037C116.163 78.0037 116.183 78.0037 116.203 78.0037C116.222 78.0037 116.242 78.0037 116.262 77.984C116.301 77.9643 116.321 77.9249 116.341 77.8856C116.341 77.8659 116.341 77.8462 116.341 77.8265V77.8068V77.8265L116.38 77.9446C116.4 78.0234 116.419 78.0824 116.439 78.1612C116.498 78.4564 116.557 78.7714 116.537 79.0864C116.301 78.8502 116.144 78.5942 115.986 78.3186C115.947 78.2596 115.907 78.1808 115.888 78.1218L115.848 78.0234L115.829 78.0037C115.829 77.984 115.809 77.9643 115.809 77.9249C115.789 77.8659 115.789 77.8068 115.809 77.7478C115.829 77.6296 115.907 77.5312 116.006 77.4722C116.065 77.4525 116.124 77.4328 116.183 77.4328C116.222 77.4328 116.242 77.4328 116.262 77.4328H116.301L116.518 77.4722C117.108 77.5706 117.699 77.6887 118.289 77.8068C118.88 77.9249 119.471 78.0627 120.061 78.2005L120.947 78.4171L121.38 78.5352C121.518 78.5746 121.675 78.5942 121.774 78.8502Z" fill="#A4A4A4"/>
<path d="M106.124 108.359C104.273 107.985 102.797 106.351 101.734 103.497L101.694 103.379C99.1943 96.5476 99.3124 83.9685 102.029 70.4838C106.065 50.5421 114.175 35.896 120.494 37.1756C126.813 38.4551 128.624 55.0895 124.589 75.0508C122.108 87.3741 117.896 98.2209 113.329 104.087C110.829 107.335 108.328 108.812 106.124 108.359ZM102.62 103.3C103.565 105.741 104.824 107.178 106.301 107.473C108.151 107.847 110.336 106.489 112.62 103.536C117.108 97.7681 121.242 87.0591 123.703 74.854C125.593 65.5033 126.242 56.5069 125.534 49.4791C124.864 42.7466 122.955 38.5732 120.297 38.022C117.64 37.4905 114.274 40.6009 111.025 46.546C107.659 52.7273 104.765 61.2905 102.876 70.6412C100.218 83.8503 100.08 96.6067 102.541 103.162L102.62 103.3Z" fill="#A4A4A4"/>
<path d="M124.904 54.3415C124.943 51.2115 124.766 48.6523 124.766 48.6523C124.766 48.6523 118.998 54.2431 116.163 61.1134C118.624 58.2786 123.526 54.7549 124.904 54.3415Z" fill="#DFDEE2"/>
<path d="M115.533 59.8141C115.809 58.7905 116.222 57.8062 116.715 56.8613C116.951 56.3888 117.226 55.936 117.502 55.4833C117.778 55.0305 118.093 54.5974 118.408 54.1643C118.723 53.7312 119.057 53.3178 119.392 52.9044C119.746 52.5107 120.081 52.0973 120.455 51.7233C121.183 50.9556 121.971 50.2272 122.797 49.5776C122.148 50.424 121.498 51.2508 120.849 52.058C120.534 52.4714 120.199 52.8848 119.884 53.2982C119.569 53.7116 119.254 54.125 118.939 54.558C118.624 54.9714 118.329 55.4045 118.034 55.8376C117.738 56.2707 117.443 56.7038 117.167 57.1369C116.596 58.003 116.065 58.8889 115.533 59.8141Z" fill="#DFDEE2"/>
<path d="M114.352 59.5779C114.569 58.5542 114.903 57.5699 115.337 56.625C115.533 56.1526 115.789 55.6801 116.026 55.2273C116.281 54.7746 116.557 54.3218 116.852 53.8887C117.148 53.4556 117.482 53.0422 117.817 52.6485L118.348 52.0579C118.526 51.8611 118.723 51.6839 118.9 51.5067C119.648 50.7784 120.475 50.1287 121.341 49.5775C120.652 50.3453 119.943 51.0933 119.274 51.8611C119.116 52.0579 118.939 52.2548 118.782 52.4517L118.309 53.0422L117.837 53.6525C117.699 53.8493 117.541 54.0659 117.404 54.2627C117.108 54.6761 116.833 55.1092 116.557 55.5226C116.281 55.9557 116.026 56.3888 115.789 56.8416C115.317 57.7471 114.844 58.6526 114.352 59.5779Z" fill="#DFDEE2"/>
<path d="M113.486 58.5148C113.703 57.6487 113.998 56.8022 114.372 55.9754C114.726 55.1486 115.159 54.3612 115.671 53.6131C116.183 52.8651 116.734 52.1564 117.364 51.5264C117.974 50.8768 118.663 50.2862 119.372 49.7547C118.782 50.424 118.191 51.0737 117.62 51.7627C117.069 52.4517 116.518 53.1407 116.045 53.869C115.553 54.5974 115.12 55.3455 114.687 56.1329C114.274 56.9203 113.88 57.7077 113.486 58.5148Z" fill="#DFDEE2"/>
<path d="M113.525 56.0148C113.781 54.873 114.313 53.7903 115.002 52.806C115.337 52.3138 115.711 51.8611 116.124 51.428C116.518 50.9949 116.951 50.5815 117.404 50.2075C117.049 50.6799 116.675 51.1327 116.321 51.5855C115.967 52.0382 115.612 52.5107 115.278 52.9832C114.943 53.4556 114.628 53.9478 114.352 54.4399C114.057 54.9714 113.781 55.4832 113.525 56.0148Z" fill="#DFDEE2"/>
<path d="M112.797 56.7038C112.285 56.7825 111.931 57.1369 111.675 57.5503C111.419 57.9637 111.281 58.4361 111.144 58.9283C111.104 58.4164 111.203 57.8849 111.478 57.4322C111.616 57.2156 111.793 56.9991 112.029 56.8613C112.266 56.7038 112.541 56.6447 112.797 56.7038Z" fill="#DFDEE2"/>
<path d="M112.994 103.812C110.671 106.804 108.328 108.339 106.222 107.926C104.509 107.572 103.131 105.957 102.167 103.359C101.95 99.7958 102.954 96.5279 105.336 96.272C107.718 95.9964 110.317 98.5162 112.994 103.812Z" fill="#DFDEE2"/>
<path d="M128.703 49.735C129.136 50.0894 129.53 50.4831 129.904 50.8965C130.278 51.3099 130.632 51.7233 130.947 52.1761C131.282 52.6288 131.577 53.1013 131.833 53.5934C132.089 54.0856 132.325 54.6368 132.345 55.2077C132.05 54.7352 131.715 54.3021 131.38 53.8887C131.046 53.4556 130.711 53.0225 130.396 52.5895C130.081 52.1564 129.766 51.7036 129.471 51.2311C129.215 50.7587 128.92 50.2665 128.703 49.735Z" fill="white"/>
<path d="M127.64 43.9475C128.093 43.9475 128.546 44.0656 128.979 44.2231C129.412 44.3805 129.806 44.5971 130.18 44.853C130.554 45.0892 130.908 45.3845 131.243 45.6798C131.577 45.9751 131.892 46.3097 132.148 46.6838C131.38 46.2113 130.672 45.6995 129.924 45.227C129.55 44.9908 129.195 44.7546 128.802 44.538C128.447 44.3215 128.054 44.1049 127.64 43.9475Z" fill="white"/>
<path d="M129.195 49.5579C129.628 49.9122 130.022 50.3059 130.396 50.7193C130.77 51.1327 131.125 51.5461 131.439 51.9989C131.774 52.4517 132.069 52.9241 132.325 53.4163C132.581 53.9084 132.817 54.4596 132.837 55.0305C132.542 54.558 132.207 54.1249 131.873 53.7115C131.538 53.2785 131.203 52.8454 130.888 52.4123C130.573 51.9792 130.258 51.5264 129.963 51.054C129.687 50.5618 129.412 50.0697 129.195 49.5579Z" fill="#A4A4A4"/>
<path d="M127.719 43.5144C128.172 43.5144 128.624 43.6325 129.058 43.79C129.491 43.9474 129.884 44.164 130.258 44.4199C130.632 44.6561 130.987 44.9514 131.321 45.2467C131.656 45.542 131.971 45.8766 132.227 46.2507C131.459 45.7782 130.75 45.2664 130.002 44.7939C129.628 44.5577 129.274 44.3215 128.88 44.1049C128.526 43.8884 128.152 43.6915 127.719 43.5144Z" fill="#A4A4A4"/>
<path d="M142.208 55.562C143.074 55.6801 143.92 55.936 144.708 56.3298C145.101 56.5266 145.475 56.7628 145.81 57.0581C145.967 57.2156 146.125 57.3731 146.243 57.57C146.302 57.6684 146.342 57.7668 146.361 57.8849C146.381 58.003 146.361 58.1212 146.302 58.1999C146.381 57.9834 146.282 57.7865 146.145 57.629C146.007 57.4715 145.849 57.3337 145.692 57.1959C145.357 56.94 144.983 56.7235 144.609 56.5266C143.841 56.1329 143.034 55.8573 142.208 55.562Z" fill="#DFDEE2"/>
<path d="M142.011 61.3102C142.404 61.4874 142.778 61.7433 143.113 62.0386C143.448 62.3339 143.743 62.6685 144.019 63.0229C144.275 63.3772 144.511 63.7709 144.688 64.1843C144.767 64.4009 144.845 64.5977 144.885 64.834C144.924 65.0505 144.944 65.3064 144.845 65.5033C144.845 65.2867 144.767 65.0899 144.668 64.893C144.59 64.6962 144.471 64.519 144.373 64.3418C144.156 63.9875 143.92 63.6331 143.664 63.2985C143.408 62.9638 143.152 62.6292 142.877 62.2945C142.601 61.9599 142.306 61.6449 142.011 61.3102Z" fill="#DFDEE2"/>
<path d="M141.046 64.204C141.302 64.3812 141.499 64.6174 141.696 64.8537C141.873 65.0899 142.03 65.3655 142.148 65.6608C142.267 65.9561 142.326 66.271 142.306 66.6057C142.286 66.9207 142.168 67.2356 141.971 67.4719C142.011 67.1569 141.991 66.8813 141.952 66.6057C141.912 66.3301 141.834 66.0742 141.735 65.8183C141.637 65.5624 141.519 65.2868 141.4 65.0308C141.282 64.7552 141.145 64.4993 141.046 64.204Z" fill="#DFDEE2"/>
<path d="M108.88 43.3175C109.077 43.2781 109.254 43.2978 109.451 43.3175C109.628 43.3372 109.805 43.3765 109.982 43.4356C110.159 43.4947 110.317 43.5537 110.474 43.6325C110.632 43.7112 110.789 43.8096 110.927 43.9671C110.73 44.0065 110.553 43.9868 110.356 43.9671C110.179 43.9474 110.002 43.9081 109.825 43.849C109.647 43.7899 109.49 43.7309 109.332 43.6521C109.175 43.5537 109.037 43.4553 108.88 43.3175Z" fill="#A4A4A4"/>
<path d="M110.258 42.5498C110.218 42.5498 110.179 42.5301 110.159 42.5104C109.037 41.5655 109.155 40.8568 109.155 40.778C109.175 40.6599 109.293 40.5812 109.411 40.6009C109.529 40.6206 109.608 40.7387 109.588 40.8568C109.588 40.8568 109.529 41.3883 110.435 42.156C110.533 42.2348 110.533 42.3726 110.455 42.471C110.435 42.5498 110.336 42.5694 110.258 42.5498Z" fill="#A4A4A4"/>
<path d="M198.528 73.5547C198.804 74.1453 198.843 74.6965 198.863 75.228C198.883 75.7595 198.843 76.291 198.784 76.8029C198.686 77.8265 198.509 78.8502 198.292 79.8542C198.076 80.8581 197.839 81.8424 197.583 82.8267C197.327 83.811 197.052 84.7953 196.737 85.7599C197.19 83.7716 197.583 81.7833 197.839 79.7754C197.977 78.7714 198.076 77.7675 198.095 76.7635C198.115 76.2714 198.095 75.7595 198.056 75.2871C198.016 74.8146 197.918 74.3225 197.721 73.9878L197.701 73.9681C197.583 73.7516 197.662 73.476 197.879 73.3579C198.095 73.2398 198.371 73.3185 198.489 73.535C198.528 73.535 198.528 73.535 198.528 73.5547Z" fill="#DFDEE2"/>
<path d="M196.717 76.921C196.894 77.5706 196.934 78.2596 196.934 78.9289C196.934 79.6179 196.855 80.2872 196.737 80.9565C196.52 82.2952 196.146 83.6141 195.713 84.8937C195.477 85.5236 195.241 86.1536 194.985 86.7835C194.847 87.0985 194.729 87.4135 194.571 87.7087C194.434 88.0237 194.296 88.319 194.138 88.634C193.548 89.8545 192.898 91.0159 192.17 92.1577C192.642 90.8978 193.174 89.6576 193.666 88.4174C193.902 87.7875 194.158 87.1772 194.394 86.5473C194.631 85.9173 194.867 85.3071 195.083 84.6771L195.398 83.7322L195.694 82.7873L195.969 81.8227C196.048 81.5078 196.146 81.1731 196.205 80.8581C196.52 79.5786 196.776 78.2793 196.717 76.921Z" fill="#DFDEE2"/>
<path d="M194.611 80.1494C194.571 80.7991 194.473 81.429 194.394 82.0589C194.276 82.6889 194.138 83.3188 193.961 83.9488C193.607 85.189 193.095 86.3898 192.524 87.5316C191.953 88.6733 191.284 89.7757 190.575 90.8585C189.867 91.9412 189.099 92.9648 188.292 93.9688C188.941 92.8664 189.63 91.7837 190.26 90.6813C190.91 89.5789 191.54 88.4765 192.111 87.3347C192.682 86.1929 193.193 85.0512 193.607 83.8503C194.04 82.6495 194.355 81.4093 194.611 80.1494Z" fill="#DFDEE2"/>
<path d="M209.71 92.7286L205.595 94.5988L209.375 92.138L209.71 92.7286Z" fill="#A4A4A4"/>
<path d="M209.021 96.2917L204.532 97.6106L208.568 95.268L209.021 96.2917Z" fill="#A4A4A4"/>
<path d="M145.908 55.2864C147.66 56.566 149.452 57.7668 151.263 58.9479C152.168 59.5385 153.074 60.1291 153.999 60.6999L155.377 61.5661L156.755 62.4126C157.68 62.9835 158.606 63.5544 159.531 64.1056C160.456 64.6765 161.381 65.208 162.326 65.7592C164.196 66.8616 166.067 67.9246 167.976 68.9483C165.948 68.1805 163.98 67.2159 162.07 66.2119C161.598 65.956 161.106 65.7001 160.633 65.4442C160.161 65.1883 159.688 64.9127 159.216 64.6568C158.271 64.1253 157.346 63.5544 156.421 62.9835C154.57 61.8417 152.759 60.6409 150.987 59.381C149.216 58.1014 147.483 56.7825 145.908 55.2864Z" fill="#DFDEE2"/>
<path d="M152.956 61.8614C153.487 62.2157 153.999 62.5701 154.531 62.9047C155.043 63.2591 155.574 63.5937 156.106 63.9284C157.169 64.5977 158.251 65.2277 159.334 65.8379C160.417 66.4482 161.539 67.0387 162.661 67.6096C162.937 67.7474 163.212 67.8852 163.507 68.023C163.783 68.1608 164.078 68.2986 164.354 68.4364C164.925 68.712 165.496 68.9679 166.067 69.2435C165.476 69.0467 164.885 68.8105 164.295 68.5939C164 68.4758 163.704 68.3577 163.429 68.2199C163.133 68.1018 162.858 67.964 162.563 67.8459C161.421 67.334 160.299 66.7631 159.196 66.1332C158.094 65.5229 157.011 64.8536 155.988 64.1449C155.476 63.7906 154.964 63.4166 154.452 63.0425C153.921 62.6685 153.428 62.2748 152.956 61.8614Z" fill="#DFDEE2"/>
<path d="M130.061 89.1655C132.384 88.4765 134.747 87.945 137.148 87.5709C138.349 87.3938 139.55 87.2363 140.751 87.1575C141.952 87.0591 143.172 87.0394 144.393 87.0985C143.192 87.1772 141.991 87.2953 140.79 87.4135C139.589 87.5513 138.389 87.7087 137.207 87.9056C134.825 88.2599 132.443 88.7324 130.061 89.1655Z" fill="#DFDEE2"/>
<path d="M133.251 90.9372C134.865 90.5041 136.518 90.1891 138.172 89.9529C138.999 89.8151 139.826 89.7363 140.672 89.6379C141.499 89.5395 142.345 89.4804 143.172 89.4017C143.999 89.3426 144.845 89.3033 145.672 89.2639C146.519 89.2442 147.346 89.2245 148.192 89.2245C149.865 89.2442 151.539 89.3033 153.212 89.5198C151.539 89.5789 149.865 89.6576 148.212 89.7363C147.798 89.756 147.385 89.7954 146.971 89.8151L145.731 89.8938C144.904 89.9529 144.078 89.9923 143.231 90.071C142.404 90.1301 141.578 90.1891 140.731 90.2679C139.904 90.3269 139.078 90.4057 138.231 90.4844L133.251 90.9372Z" fill="#DFDEE2"/>
<path d="M137.424 92.0199C139.314 91.6459 141.243 91.39 143.152 91.1734C144.117 91.0553 145.082 90.9766 146.046 90.8978C146.519 90.8585 147.011 90.8388 147.503 90.7994C147.995 90.76 148.468 90.7403 148.96 90.7207C149.452 90.701 149.924 90.6813 150.416 90.6813C150.909 90.6616 151.381 90.6419 151.873 90.6616C152.838 90.6616 153.802 90.6616 154.767 90.701C156.696 90.7797 158.645 90.9372 160.535 91.2915C158.606 91.2128 156.677 91.1931 154.747 91.2325C153.783 91.2522 152.818 91.2719 151.854 91.3112C150.889 91.3309 149.924 91.3703 148.979 91.4293C148.015 91.4687 147.05 91.5081 146.105 91.5671L143.212 91.7246C141.282 91.8034 139.373 91.9215 137.424 92.0199Z" fill="#DFDEE2"/>
<path d="M144.609 92.7876C145.928 92.7089 147.247 92.6498 148.586 92.6105L150.574 92.5514C151.243 92.5317 151.893 92.512 152.562 92.4924C155.22 92.453 157.858 92.4333 160.515 92.4924C165.811 92.6302 171.126 92.9648 176.402 93.5751C181.677 94.146 186.933 94.9531 192.15 95.898C197.367 96.8429 202.564 97.8862 207.741 99.0477L207.544 99.9139C202.367 98.8508 197.17 97.8272 191.953 96.902C186.737 95.9767 181.54 95.1106 176.283 94.5003L174.315 94.2641L172.346 94.0475C171.027 93.9097 169.708 93.7719 168.409 93.6538C165.771 93.4176 163.133 93.2404 160.496 93.1223C157.858 92.9845 155.2 92.9058 152.562 92.8664L148.586 92.8073L144.609 92.7876Z" fill="#DFDEE2"/>
<path d="M165.555 101.705L164.866 101.134C165.043 100.918 165.24 100.682 165.437 100.445C167.307 98.2406 169.886 95.2484 172.169 84.6378C174.039 76.0155 172.898 70.6806 171.362 68.7317C171.027 68.2987 170.653 68.0427 170.378 68.0231L170.397 67.1372C170.968 67.1569 171.539 67.5112 172.071 68.1805C173.803 70.3853 174.965 75.917 173.035 84.8346C170.693 95.6618 168.035 98.7721 166.106 101.036C165.929 101.253 165.732 101.489 165.555 101.705Z" fill="#A4A4A4"/>
<path d="M174.886 85.3267C174.531 86.0551 174.059 86.6851 173.547 87.2953C173.035 87.9056 172.484 88.4568 171.894 88.9883C171.303 89.5198 170.673 89.9923 170.004 90.4253C169.334 90.8387 168.606 91.2128 167.819 91.3899C168.449 90.8781 169.019 90.3663 169.59 89.8545L171.323 88.319C171.894 87.8071 172.484 87.2953 173.075 86.8032C173.646 86.311 174.256 85.8189 174.886 85.3267Z" fill="white"/>
<path d="M174.905 84.4409C174.512 85.1299 174.02 85.7598 173.508 86.3504C172.996 86.941 172.425 87.4922 171.834 88.0237C171.244 88.5552 170.614 89.0473 169.964 89.4607C169.295 89.8938 168.586 90.2875 167.819 90.5041C168.468 90.0316 169.059 89.5395 169.649 89.0473C170.24 88.5355 170.811 88.0237 171.401 87.5118L173.153 85.9764C173.705 85.4645 174.295 84.9527 174.905 84.4409Z" fill="#DFDEE2"/>
<path d="M164.256 91.2718C164.708 90.7994 165.2 90.3663 165.673 89.9332C166.145 89.5001 166.618 89.0473 167.09 88.6143C167.563 88.1812 168.015 87.7284 168.488 87.2756L169.886 85.9173C169.571 86.4882 169.177 87.0197 168.744 87.5119C168.33 88.0237 167.878 88.4961 167.405 88.9292C166.933 89.382 166.441 89.8151 165.909 90.1891C165.378 90.6025 164.826 90.9569 164.256 91.2718Z" fill="#DFDEE2"/>
<path d="M193.548 104.186C195.556 103.871 197.583 103.812 199.119 103.693C196.619 104.678 196.009 104.56 193.548 104.186Z" fill="white"/>
<path d="M196.343 105.012C197.603 105.072 200.418 104.146 201.265 103.871C200.792 104.343 200.024 104.894 199.178 105.131C198.016 105.446 196.343 105.012 196.343 105.012Z" fill="white"/>
<path d="M199.02 105.859C199.296 105.78 199.572 105.701 199.828 105.623C200.083 105.524 200.339 105.426 200.595 105.288C201.087 105.052 201.56 104.757 202.052 104.442C201.678 104.875 201.206 105.229 200.694 105.485C200.438 105.603 200.162 105.701 199.887 105.78C199.591 105.839 199.316 105.859 199.02 105.859Z" fill="white"/>
<path d="M166.972 100.032C169.354 100.17 171.736 100.327 174.098 100.524C176.48 100.721 178.843 100.938 181.205 101.193C183.567 101.449 185.929 101.725 188.292 102.099C190.654 102.453 192.997 102.867 195.3 103.438C192.977 102.906 190.634 102.532 188.272 102.197C185.91 101.863 183.548 101.627 181.185 101.41C178.823 101.193 176.441 101.016 174.079 100.859C171.697 100.701 169.334 100.583 166.952 100.485L166.972 100.032Z" fill="white"/>
<path d="M116.163 35.4235C116.557 34.9905 117.03 34.5968 117.522 34.2621C118.034 33.9274 118.585 33.6518 119.195 33.4747C119.805 33.2975 120.475 33.2778 121.124 33.455C121.282 33.514 121.439 33.5534 121.597 33.6125C121.754 33.6912 121.892 33.77 122.049 33.8487L122.443 34.144C122.581 34.2424 122.679 34.3605 122.797 34.4786C123.25 34.9511 123.605 35.4629 123.9 35.9944C124.215 36.5259 124.451 37.0968 124.687 37.648C125.14 38.7898 125.455 39.9513 125.711 41.1127C125.967 42.2742 126.164 43.4553 126.302 44.6561C126.459 45.8373 126.557 47.0184 126.636 48.2192C126.715 49.4004 126.754 50.6012 126.754 51.7824C126.774 52.9635 126.754 54.1446 126.695 55.3455L125.809 55.3061C125.809 54.1446 125.79 52.9635 125.75 51.802C125.711 50.6209 125.652 49.4594 125.573 48.298C125.396 45.9554 125.14 43.6325 124.687 41.3489C124.451 40.2072 124.156 39.0851 123.782 38.0221C123.585 37.4905 123.368 36.959 123.093 36.4669C122.837 35.9747 122.522 35.5023 122.148 35.1086C121.793 34.7149 121.36 34.3999 120.888 34.2424C120.396 34.0652 119.864 34.0456 119.313 34.1243C118.23 34.2818 117.167 34.8133 116.163 35.4235Z" fill="#A4A4A4"/>
<path d="M103.919 111.371C104.509 111.41 105.1 111.489 105.671 111.509C106.242 111.509 106.773 111.45 107.265 111.213C108.23 110.78 109.037 109.993 109.766 109.107C110.474 108.221 111.104 107.257 111.714 106.272C112.305 105.288 112.876 104.264 113.407 103.241C113.683 102.729 113.939 102.197 114.195 101.686C114.451 101.174 114.707 100.642 114.963 100.111C115.218 99.5792 115.474 99.0674 115.711 98.5358C115.967 98.0043 116.203 97.4728 116.459 96.9413C117.443 94.8152 118.388 92.6892 119.352 90.5434L120.179 90.8978C119.313 93.0829 118.408 95.2483 117.443 97.3941C116.97 98.4571 116.478 99.5398 115.947 100.583C115.435 101.646 114.903 102.69 114.352 103.733C113.23 105.8 112.049 107.867 110.474 109.717C110.061 110.17 109.667 110.623 109.175 110.997C108.683 111.391 108.132 111.725 107.521 111.902C106.911 112.099 106.242 112.08 105.632 111.961C105.002 111.824 104.45 111.607 103.919 111.371Z" fill="#A4A4A4"/>
<path d="M119.805 101.607C121.793 101.036 123.762 100.485 125.77 99.9729C126.774 99.6973 127.758 99.4611 128.762 99.2248C129.766 98.9886 130.77 98.7524 131.774 98.5358C132.778 98.3193 133.782 98.1027 134.806 97.9059C135.829 97.709 136.833 97.5122 137.857 97.335C139.885 96.9807 141.932 96.6657 143.979 96.4098C145.003 96.2917 146.027 96.1539 147.07 96.0554C148.094 95.957 149.137 95.8389 150.161 95.7601L153.251 95.5436C154.275 95.4845 155.318 95.4452 156.362 95.4058C160.496 95.2877 164.649 95.3664 168.783 95.7208L168.665 97.5122C164.57 97.3744 160.496 97.2563 156.401 97.2759C152.306 97.2759 148.212 97.4531 144.137 97.8075C140.062 98.1618 135.987 98.6736 131.932 99.3233C129.904 99.6579 127.876 100.032 125.868 100.426C123.841 100.76 121.813 101.193 119.805 101.607Z" fill="#DFDEE2"/>
<path d="M122.463 98.2209C130.081 96.3114 137.837 94.894 145.712 94.2444C153.566 93.5948 161.5 93.6735 169.374 94.5987L169.138 96.3704C161.44 95.1696 153.606 94.7759 145.771 95.1499C137.955 95.5043 130.16 96.6067 122.463 98.2209Z" fill="#DFDEE2"/>
<path d="M118.703 102.63C120.691 102.178 122.679 101.764 124.668 101.371C125.672 101.174 126.656 100.997 127.66 100.839C128.664 100.682 129.668 100.524 130.672 100.426C129.668 100.623 128.683 100.859 127.719 101.115C126.735 101.371 125.77 101.646 124.786 101.922C122.837 102.493 120.908 103.083 118.978 103.713L118.703 102.63Z" fill="#DFDEE2"/>
<path d="M120.16 100.938C120.337 100.603 119.274 100.386 117.404 101.312C115.533 102.237 114.746 103.379 115.907 103.674C114.589 104.323 114.569 105.032 115.337 105.091C116.104 105.15 118.447 104.068 118.447 104.068L120.16 100.938Z" fill="#DFDEE2"/>
<path d="M116.695 100.445C116.557 100.721 120.908 99.4808 120.947 99.3824C120.986 99.2839 117.423 98.8705 116.695 100.445Z" fill="#DFDEE2"/>
<path d="M118.053 98.4572C118.211 98.2406 118.447 98.1028 118.703 98.0241C118.939 97.9256 119.195 97.8666 119.451 97.8469C119.707 97.8272 119.963 97.8075 120.219 97.8272C120.475 97.8469 120.73 97.8863 120.967 97.965C120.455 98.0634 119.963 98.1028 119.49 98.1619C119.254 98.1816 118.998 98.2209 118.762 98.2603C118.545 98.2997 118.309 98.3587 118.053 98.4572Z" fill="#DFDEE2"/>
<path d="M169.472 127.021C169.787 126.529 170.26 126.175 170.732 125.879C171.224 125.584 171.736 125.348 172.248 125.151C172.779 124.954 173.311 124.797 173.862 124.659C174.413 124.541 174.965 124.442 175.535 124.423C175.043 124.698 174.531 124.934 174.02 125.151C173.508 125.367 172.996 125.564 172.484 125.761L170.949 126.352C170.457 126.549 169.964 126.726 169.472 127.021Z" fill="white"/>
<path d="M169.59 126.352C169.905 125.86 170.378 125.505 170.85 125.21C171.342 124.915 171.854 124.678 172.366 124.482C172.898 124.285 173.429 124.127 173.98 123.989C174.531 123.871 175.083 123.773 175.654 123.753C175.161 124.029 174.65 124.265 174.138 124.482C173.626 124.698 173.114 124.895 172.602 125.092L171.067 125.682C170.594 125.879 170.102 126.076 169.59 126.352Z" fill="#DFDEE2"/>
<path d="M174.177 125.663C174.512 125.446 174.886 125.289 175.28 125.151C175.654 125.033 176.047 124.934 176.441 124.856C176.835 124.777 177.228 124.738 177.622 124.718C178.016 124.698 178.429 124.698 178.823 124.757C178.429 124.895 178.055 124.974 177.661 125.072C177.268 125.151 176.894 125.23 176.5 125.308C176.106 125.387 175.732 125.446 175.339 125.505C174.965 125.545 174.591 125.604 174.177 125.663Z" fill="#DFDEE2"/>
<path d="M172.209 141.667C171.441 141.51 170.831 140.899 170.673 140.132V140.092C170.634 139.856 170.634 139.6 170.673 139.364C170.89 138.301 171.933 137.612 172.996 137.828C174.059 138.045 174.748 139.088 174.531 140.151C174.335 141.116 173.488 141.766 172.524 141.726C172.425 141.707 172.307 141.687 172.209 141.667ZM171.126 140.092C171.264 140.663 171.716 141.116 172.307 141.234C172.386 141.254 172.464 141.254 172.543 141.254C173.291 141.293 173.941 140.781 174.098 140.033C174.256 139.206 173.724 138.419 172.917 138.242C172.09 138.084 171.303 138.616 171.126 139.423C171.086 139.62 171.086 139.817 171.126 140.014V140.092Z" fill="#A4A4A4"/>
<path d="M172.524 141.49C172.425 141.49 172.346 141.47 172.248 141.451C171.539 141.313 171.027 140.762 170.89 140.092C171.146 139.364 171.52 139.049 171.992 139.187C172.464 139.305 173.409 140.329 172.524 141.49Z" fill="#A4A4A4"/>
<path d="M182.721 118.241C181.953 118.084 181.343 117.473 181.185 116.706V116.666C181.146 116.43 181.146 116.174 181.185 115.938C181.225 115.702 181.323 115.485 181.441 115.288C181.874 114.599 182.701 114.225 183.508 114.403C184.571 114.619 185.26 115.662 185.044 116.725C184.906 117.454 184.374 118.025 183.666 118.222C183.469 118.281 183.252 118.3 183.036 118.3C182.937 118.281 182.839 118.261 182.721 118.241ZM181.638 116.666C181.776 117.237 182.229 117.69 182.819 117.808C182.898 117.828 182.977 117.828 183.055 117.828C183.213 117.828 183.39 117.808 183.547 117.769C184.099 117.611 184.512 117.178 184.611 116.607C184.768 115.781 184.236 114.993 183.429 114.816C182.819 114.698 182.169 114.973 181.835 115.505C181.736 115.662 181.677 115.82 181.638 115.997C181.599 116.194 181.599 116.391 181.638 116.588V116.666Z" fill="#A4A4A4"/>
<path d="M183.587 117.985C183.41 118.044 183.233 118.064 183.036 118.044C182.937 118.044 182.858 118.025 182.76 118.005C182.051 117.867 181.54 117.316 181.402 116.647C181.362 116.43 181.362 116.194 181.402 115.958C181.441 115.741 181.52 115.564 181.618 115.387C182.701 115.446 183.784 116.056 183.587 117.985Z" fill="#A4A4A4"/>
<path d="M164.413 145.644C164.787 145.644 165.141 145.644 165.515 145.624C165.889 145.604 166.244 145.526 166.618 145.388C166.972 145.25 167.326 145.093 167.641 144.876C167.956 144.659 168.271 144.404 168.508 144.089C168.35 144.463 168.094 144.797 167.799 145.073C167.504 145.348 167.169 145.604 166.795 145.801C166.421 145.998 166.027 146.156 165.614 146.254C165.2 146.352 164.748 146.372 164.334 146.293L164.413 145.644Z" fill="#A4A4A4"/>
<path d="M170.319 142.907C170.338 143.281 170.24 143.655 170.122 143.99C170.004 144.344 169.827 144.679 169.649 144.994C169.275 145.644 168.862 146.234 168.35 146.766C168.724 146.136 169.098 145.506 169.453 144.876C169.63 144.561 169.807 144.246 169.964 143.911C170.102 143.616 170.26 143.281 170.319 142.907Z" fill="#A4A4A4"/>
<path d="M166.697 129.147C167.445 130.328 167.937 131.431 167.976 132.021C168.015 132.612 167.799 133.773 167.799 133.773C167.799 133.773 167.189 131.372 166.303 129.954L166.697 129.147Z" fill="#DFDEE2"/>
<path d="M165.732 131.018C166.263 132.298 166.834 133.794 166.5 134.601C166.165 135.408 164.905 135.113 164.905 135.113C164.905 135.113 164.098 137.947 163.232 139.384L164.019 133.912L165.732 131.018Z" fill="#DFDEE2"/>
<path d="M163.448 134.817C163.448 134.817 163.271 137.671 161.598 140.722C161.893 139.364 162.563 135.978 162.563 135.978L163.448 134.817Z" fill="#DFDEE2"/>
<path d="M180.614 112.178C181.284 112.178 181.973 112.316 182.622 112.532C183.272 112.749 183.882 113.064 184.453 113.438C185.024 113.812 185.555 114.245 186.028 114.737C186.5 115.21 186.953 115.721 187.347 116.273C186.815 115.859 186.323 115.407 185.792 114.993C185.28 114.58 184.748 114.166 184.197 113.812C183.646 113.458 183.075 113.123 182.484 112.867C181.894 112.591 181.264 112.375 180.614 112.178Z" fill="#DFDEE2"/>
<path d="M188.095 112.591C185.969 111.076 184.079 110.446 183.114 110.269C185.733 110.485 188.725 111.607 189.945 112.355C187.996 110.859 185.87 109.402 181.54 109.146L179.847 109.186L179.591 110.406C179.473 110.387 179.335 110.387 179.217 110.367L179.158 111.036C180.654 111.253 182.13 111.647 183.567 112.217C184.276 112.493 184.985 112.828 185.674 113.162C186.363 113.517 187.052 113.891 187.741 114.265C187.13 113.773 186.5 113.3 185.851 112.867C185.201 112.434 184.512 112.021 183.803 111.666C183.567 111.548 183.311 111.43 183.075 111.332C184.709 111.666 186.481 112.04 188.095 112.591Z" fill="#DFDEE2"/>
<path d="M177.898 144.443C176.894 145.998 174.098 148.36 174.098 148.36C174.098 148.36 169.59 148.419 169.787 146.904C170.023 145.388 175.22 143.577 177.898 144.443Z" fill="#DFDEE2"/>
<path d="M173.941 117.985C173.213 119.639 172.484 120.958 169.925 122.119C170.575 120.643 171.224 119.147 171.835 117.769C172.346 117.867 173.055 117.926 173.941 117.985Z" fill="#DFDEE2"/>
<path d="M169.256 122.789L169.61 121.982C170.24 120.564 170.89 119.068 171.5 117.651L171.598 117.414L171.854 117.454C172.445 117.533 173.153 117.611 173.941 117.67L174.413 117.71L174.216 118.143C173.449 119.855 172.661 121.253 170.023 122.434L169.256 122.789ZM172.031 118.143C171.559 119.206 171.086 120.328 170.614 121.411C172.209 120.525 172.858 119.521 173.449 118.3C172.917 118.241 172.445 118.202 172.031 118.143Z" fill="#A4A4A4"/>
<path d="M180.91 107.65L173.429 106.036C173.429 106.036 168.606 114.403 168.271 115.682C167.917 116.981 170.299 117.454 170.299 117.454C170.299 117.454 170.712 117.611 171.835 117.749V117.729C172.405 117.808 173.213 117.907 173.941 117.966C174.098 117.611 174.276 117.218 174.453 116.824C175.457 114.639 177.189 110.761 177.189 110.761L179.689 109.56L180.91 107.65Z" fill="white"/>
<path d="M170.811 117.966C170.457 117.887 170.26 117.828 170.201 117.808C169.964 117.749 168.586 117.434 168.075 116.607C167.878 116.312 167.838 115.958 167.937 115.603C168.291 114.284 172.937 106.213 173.134 105.859L173.252 105.642L181.441 107.414L179.925 109.835L177.445 111.036C177.15 111.686 175.654 115.032 174.748 116.981C174.63 117.237 174.531 117.493 174.413 117.729C174.354 117.867 174.295 117.985 174.236 118.123L174.138 118.34L173.902 118.32C173.39 118.281 172.799 118.222 172.09 118.123L171.756 118.103C171.382 118.064 171.067 118.005 170.811 117.966ZM173.587 106.43C172.169 108.891 168.842 114.796 168.567 115.8C168.527 115.977 168.547 116.115 168.626 116.273C168.941 116.785 169.964 117.099 170.338 117.159L170.378 117.178C170.378 117.178 170.712 117.296 171.539 117.414L171.835 117.434C172.543 117.533 173.173 117.611 173.685 117.651C173.705 117.592 173.744 117.533 173.764 117.474C173.862 117.237 173.98 116.981 174.098 116.725C175.102 114.56 176.815 110.702 176.835 110.662L176.894 110.544L179.433 109.324L180.339 107.887L173.587 106.43Z" fill="#A4A4A4"/>
<path d="M172.11 109.914C173.468 110.19 176.756 111.725 176.756 111.725L177.169 110.8L179.669 109.599L183.311 109.146L186.146 109.304L185.811 108.733L173.685 106.135L172.11 109.914Z" fill="#DFDEE2"/>
<path d="M174.295 110.091C173.961 110.564 173.646 111.095 173.331 111.587C173.016 112.099 172.72 112.611 172.425 113.143C171.835 114.186 171.264 115.249 170.732 116.332L170.693 116.371C170.653 116.45 170.614 116.509 170.555 116.548C170.496 116.588 170.437 116.627 170.378 116.627C170.319 116.647 170.24 116.647 170.181 116.647C170.102 116.647 170.023 116.627 169.945 116.568C169.984 116.47 170.023 116.41 170.063 116.351C170.102 116.292 170.161 116.253 170.22 116.233C170.279 116.194 170.338 116.194 170.417 116.174C170.476 116.174 170.555 116.174 170.634 116.214L170.594 116.253C171.067 115.151 171.539 114.048 172.071 112.946C172.327 112.395 172.602 111.863 172.858 111.312C173.134 110.78 173.409 110.249 173.724 109.698L174.295 110.091Z" fill="#A4A4A4"/>
</g>
<defs>
<clipPath id="clip0">
<rect width="664" height="200" fill="white"/>
</clipPath>
</defs>
</svg>
