<svg width="774" height="280" viewBox="0 0 774 280" fill="none" xmlns="http://www.w3.org/2000/svg">
<g clip-path="url(#clip0)">
<path d="M538.289 219.9C518.699 219.9 501.108 224.007 488.707 230.499C479.781 228.705 468.998 227.666 457.358 227.666C453.026 227.666 448.836 227.832 444.79 228.091C438.363 224.857 425.819 222.45 410.632 221.718C410.656 221.6 410.704 221.505 410.704 221.387C410.704 218.248 405.848 215.627 399.135 214.66C400.849 212.346 401.825 209.891 401.825 207.318C401.825 194.099 377.093 183.406 346.602 183.406C340.603 183.406 334.843 183.831 329.439 184.61C326.94 178.519 317.538 173.963 306.303 173.963C293.163 173.963 282.499 180.172 282.499 187.82C282.499 192.919 287.236 197.357 294.258 199.741C292.425 202.125 291.378 204.674 291.378 207.318C291.378 207.342 291.378 207.365 291.378 207.365C290.331 207.342 289.259 207.318 288.188 207.318C266.48 207.318 248.889 213.645 248.842 221.458C242.319 220.467 234.798 219.9 226.776 219.9C214.517 219.9 203.425 221.222 195.308 223.323C189.667 222.166 182.169 221.458 173.933 221.458C157.77 221.458 144.44 224.149 142.489 227.643C136.919 227.501 131.111 227.43 125.088 227.43C87.5745 227.43 57.154 230.169 57.154 233.568C57.154 234.441 59.2725 235.291 63.0096 236.046C31.018 236.731 9 238.124 9 239.729C9 241.995 53.036 243.813 107.379 243.813C149.035 243.813 184.62 242.727 198.95 241.216C206.615 242.845 216.303 243.813 226.847 243.813C248.675 243.813 266.861 239.658 270.883 234.158C276.12 235.079 281.999 235.622 288.236 235.622C302.613 235.622 315.157 232.836 322.037 228.681C329.439 230.287 337.794 231.207 346.625 231.207C348.577 231.207 350.505 231.16 352.409 231.066C351.981 231.679 351.719 232.293 351.719 232.93C351.719 239.28 373.594 244.426 400.587 244.426C401.04 244.426 401.492 244.403 401.944 244.403C402.872 253.137 427.294 260.148 457.382 260.148C462.333 260.148 467.094 259.935 471.664 259.581C477.71 274.949 505.226 286.586 538.313 286.586C575.827 286.586 606.224 271.644 606.224 253.231C606.2 234.819 575.803 219.9 538.289 219.9ZM181.383 237.014C182.835 236.825 184.144 236.613 185.358 236.4C185.834 236.707 186.382 236.991 186.929 237.298C185.192 237.203 183.335 237.109 181.383 237.014Z" fill="#F5F5F5"/>
<path d="M592.289 231.937C572.699 231.937 555.108 236.044 542.707 242.536C533.781 240.742 522.998 239.703 511.358 239.703C507.026 239.703 502.836 239.868 498.79 240.128C492.363 236.894 479.819 234.486 464.632 233.754C464.656 233.636 464.704 233.542 464.704 233.424C464.704 230.284 459.848 227.664 453.135 226.696C454.849 224.383 455.825 221.928 455.825 219.355C455.825 206.136 431.093 195.442 400.602 195.442C394.603 195.442 388.843 195.867 383.439 196.646C380.94 190.556 371.538 186 360.303 186C347.163 186 336.499 192.208 336.499 199.857C336.499 204.955 341.236 209.393 348.258 211.777C346.425 214.162 345.378 216.711 345.378 219.355C345.378 219.378 345.378 219.402 345.378 219.402C344.331 219.378 343.259 219.355 342.188 219.355C320.48 219.355 302.889 225.681 302.842 233.495C296.319 232.503 288.798 231.937 280.776 231.937C268.517 231.937 257.425 233.259 249.308 235.36C243.667 234.203 236.169 233.495 227.933 233.495C211.77 233.495 198.44 236.186 196.489 239.679C190.919 239.538 185.111 239.467 179.088 239.467C141.575 239.467 111.154 242.205 111.154 245.604C111.154 246.478 113.272 247.328 117.01 248.083C85.018 248.768 63 250.16 63 251.766C63 254.032 107.036 255.849 161.379 255.849C203.035 255.849 238.62 254.763 252.95 253.253C260.615 254.881 270.303 255.849 280.847 255.849C302.675 255.849 320.861 251.695 324.883 246.195C330.12 247.115 335.999 247.658 342.236 247.658C356.613 247.658 369.157 244.873 376.037 240.718C383.439 242.323 391.794 243.244 400.625 243.244C402.577 243.244 404.505 243.197 406.409 243.102C405.981 243.716 405.719 244.33 405.719 244.967C405.719 251.317 427.594 256.463 454.587 256.463C455.04 256.463 455.492 256.439 455.944 256.439C456.872 265.174 481.294 272.184 511.382 272.184C516.333 272.184 521.094 271.972 525.664 271.618C531.71 286.985 559.226 298.623 592.313 298.623C629.827 298.623 660.224 283.68 660.224 265.268C660.2 246.856 629.803 231.937 592.289 231.937ZM235.383 249.051C236.835 248.862 238.144 248.65 239.358 248.437C239.834 248.744 240.382 249.027 240.929 249.334C239.192 249.24 237.335 249.145 235.383 249.051Z" fill="#F5F5F5"/>
<path d="M614.317 226.415C612.841 226.415 611.413 226.463 609.984 226.463C612.722 223.299 614.317 219.546 614.317 215.58C614.317 206.705 606.557 199.08 595.536 195.917C596.559 193.981 597.178 191.951 597.178 189.826C597.178 179.676 584.229 171.296 567.519 170.045C557.76 153.214 535.576 139.9 507.583 134.211C506.631 123.022 491.635 114.17 473.163 114.17C468.331 114.17 463.761 114.784 459.572 115.87C452.264 105.224 441.529 97.1033 428.985 92.8778C422.558 50.4112 385.615 17.8589 341.032 17.8589C302.756 17.8589 270.122 41.8423 257.601 75.4804C254.221 73.0963 250.222 71.7035 245.866 71.7035C234.107 71.7035 224.538 82.0192 224.538 94.6955C224.538 102.249 227.895 108.906 233.06 113.084C230.204 118.797 228.561 125.17 228.561 131.922C228.561 134.329 228.823 136.714 229.204 139.027C227.442 138.791 225.657 138.697 223.801 138.697C211.542 138.697 201.14 143.654 197.212 150.523C186.12 153.686 176.646 158.455 169.672 164.309C149.344 165.253 133.539 171.556 132.658 179.346C122.994 183.264 116.853 189.213 116.853 195.822C116.853 196.271 116.924 196.719 116.995 197.144C103.428 199.528 94.0014 204.887 94.0014 211.166C94.0014 213.102 94.9536 214.943 96.596 216.643C77.4106 217.917 64.4854 220.278 64.4854 222.945C64.4854 225.542 76.4108 227.808 94.4537 229.13C104.689 229.838 116.876 230.31 130.016 230.31C160.365 230.31 185.811 227.997 193.261 224.834C203.687 228.304 215.684 230.31 228.514 230.31C268.122 230.31 300.209 211.497 300.209 188.269C300.209 186.947 300.09 185.625 299.876 184.35C312.182 190.7 326.155 194.312 340.96 194.312C349.458 194.312 357.646 193.108 365.406 190.912C370.619 196.436 376.903 200.921 383.877 204.132C394.779 228.988 432.246 247.283 476.758 247.283C482.923 247.283 488.993 246.905 494.848 246.221C494.848 246.527 494.777 246.834 494.777 247.118C494.777 267.017 519.913 283.14 550.952 283.14C571.209 283.14 588.99 276.271 598.845 265.931C604.057 260.502 607.08 254.081 607.104 247.212C609.461 247.259 611.817 247.283 614.269 247.283C649.236 247.283 677.562 242.609 677.562 236.873C677.609 231.113 649.284 226.415 614.317 226.415Z" fill="#EBEBEB"/>
<path d="M598.892 265.931C589.038 276.271 571.257 283.14 551 283.14C519.961 283.14 494.824 267.017 494.824 247.118C494.824 246.811 494.896 246.504 494.896 246.221C489.04 246.905 482.97 247.283 476.805 247.283C432.293 247.283 394.827 228.965 383.925 204.132C376.951 200.921 370.667 196.436 365.454 190.912C357.694 193.108 349.506 194.312 341.008 194.312C326.202 194.312 312.23 190.676 299.923 184.35C300.161 185.625 300.257 186.947 300.257 188.269C300.257 211.497 268.146 230.31 228.561 230.31C215.731 230.31 203.734 228.304 193.309 224.834C185.834 227.997 160.413 230.31 130.063 230.31C116.924 230.31 104.737 229.862 94.5013 229.13C101.428 222.025 113.187 211.803 124.922 209.797C143.346 206.634 152.867 217.351 152.867 217.351C152.867 217.351 149.677 175.144 187.762 178.283C219.683 180.927 215.065 201.7 212.732 208.333C214.708 204.132 220.992 195.161 237.249 199.033C248.723 201.795 252.745 208.499 254.078 214.022C254.316 205.029 256.697 191.88 268.36 191.479C272.478 191.337 275.668 191.786 278.143 192.494C273.835 186.026 270.407 175.427 274.716 159.375C282.928 128.57 307.088 122.904 326.726 121.606C346.411 120.355 354.028 129.797 364.811 142.379C370.976 149.579 372.285 161.948 372.285 171.202C376.927 168.605 387.757 168.322 411.156 175.12C466.832 191.243 445.385 226.958 444.814 227.95C445.909 227.124 468.95 210.009 497.467 221.08C522.865 230.924 521.841 249.856 519.865 255.403C522.984 252.24 532.862 246.15 550.786 255.073C571.995 265.577 557.832 277.545 554.142 280.307C559.45 276.884 588.776 258.377 598.892 265.931Z" fill="#F5F5F5"/>
<path d="M403.92 132.087C403.92 132.087 430.579 120.756 452.478 128.31C474.377 135.864 475.329 166.079 475.329 166.079C475.329 166.079 460.071 121.228 403.92 132.087Z" fill="#F5F5F5"/>
<path d="M514.343 204.32C514.343 204.32 524.769 151.538 475.306 166.079C475.306 166.079 507.916 158.502 514.343 204.32Z" fill="#F5F5F5"/>
<path d="M368.691 41.9367C368.691 41.9367 410.108 57.0444 411.537 87.7318C412.965 118.419 403.92 132.111 403.92 132.111C403.92 132.111 424.866 68.3751 368.691 41.9367Z" fill="#F5F5F5"/>
<path d="M273.502 139.641C283.23 139.641 291.116 131.82 291.116 122.173C291.116 112.525 283.23 104.704 273.502 104.704C263.774 104.704 255.887 112.525 255.887 122.173C255.887 131.82 263.774 139.641 273.502 139.641Z" fill="#F5F5F5"/>
<path d="M281.357 106.357C286.747 106.357 291.116 102.024 291.116 96.6784C291.116 91.3332 286.747 87 281.357 87C275.967 87 271.598 91.3332 271.598 96.6784C271.598 102.024 275.967 106.357 281.357 106.357Z" fill="#F5F5F5"/>
<path d="M768.268 280.09C767.178 280.09 766.123 280.125 765.067 280.125C767.09 277.788 768.268 275.014 768.268 272.084C768.268 265.527 762.535 259.893 754.391 257.556C755.148 256.126 755.605 254.626 755.605 253.056C755.605 245.557 746.037 239.365 733.69 238.441C726.479 226.006 710.087 216.169 689.403 211.966C688.7 203.699 677.619 197.159 663.971 197.159C660.4 197.159 657.023 197.612 653.928 198.414C648.528 190.549 640.596 184.549 631.327 181.427C626.578 150.051 599.282 126 566.339 126C538.057 126 513.944 143.72 504.693 168.573C502.195 166.812 499.24 165.783 496.022 165.783C487.333 165.783 480.263 173.404 480.263 182.77C480.263 188.351 482.743 193.269 486.559 196.356C484.449 200.577 483.235 205.286 483.235 210.274C483.235 212.053 483.428 213.815 483.71 215.524C482.408 215.349 481.089 215.28 479.717 215.28C470.66 215.28 462.973 218.942 460.071 224.017C451.875 226.355 444.875 229.878 439.722 234.203C424.702 234.901 413.023 239.557 412.372 245.313C405.232 248.208 400.694 252.603 400.694 257.486C400.694 257.818 400.747 258.149 400.799 258.463C390.774 260.225 383.809 264.184 383.809 268.823C383.809 270.253 384.513 271.613 385.726 272.869C371.55 273.811 362 275.555 362 277.526C362 279.444 370.812 281.119 384.143 282.095C391.706 282.619 400.711 282.967 410.42 282.967C432.845 282.967 451.647 281.258 457.152 278.921C464.855 281.485 473.72 282.967 483.2 282.967C512.466 282.967 536.175 269.067 536.175 251.905C536.175 250.929 536.087 249.952 535.929 249.01C545.022 253.702 555.346 256.37 566.286 256.37C572.565 256.37 578.615 255.481 584.349 253.859C588.201 257.94 592.844 261.254 597.998 263.626C606.053 281.991 633.737 295.507 666.626 295.507C671.182 295.507 675.667 295.228 679.993 294.723C679.993 294.949 679.941 295.176 679.941 295.385C679.941 310.088 698.514 322 721.449 322C736.416 322 749.555 316.925 756.836 309.286C760.688 305.274 762.921 300.53 762.939 295.455C764.68 295.49 766.422 295.507 768.233 295.507C794.07 295.507 815 292.054 815 287.816C815.035 283.56 794.105 280.09 768.268 280.09Z" fill="#EBEBEB"/>
<path d="M757.887 313.521C757.431 313.132 756.977 312.77 756.536 312.394C758.218 312.136 759.702 311.393 760.75 310.165C763.095 307.416 762.712 303.009 760.142 299.124C760.969 298.794 761.697 298.329 762.258 297.671C764.94 294.527 763.153 288.518 758.32 283.726C759.751 275.941 756.414 265.97 749.267 256.829C751.929 253.113 749.634 246.418 743.926 241.549C742.433 240.276 740.858 239.261 739.277 238.493C739.832 233.27 738.66 227.925 735.9 223.31C745.134 208.462 742.319 188.642 728.542 176.891C716.715 166.803 700.294 165.63 687.538 172.749C687.124 171.119 686.256 169.634 684.91 168.486C681.276 165.386 675.594 166.059 672.245 169.986C670.249 172.325 669.528 175.272 670.02 177.927C667.628 178.944 665.436 180.485 663.653 182.576C663.017 183.322 662.468 184.13 661.974 184.947C661.492 184.409 660.965 183.909 660.392 183.42C656.604 180.189 652.08 178.983 649.051 180.075C644.788 178.131 640.601 177.111 636.899 177.086C630.368 172.021 623.819 169.807 621.489 171.988C617.467 170.654 613.998 170.878 612.251 172.925C612.133 173.064 612.036 173.222 611.946 173.372C607.124 170.535 602.795 169.71 601.136 171.655C600.625 172.254 600.433 173.076 600.491 174.035C594.226 169.373 589.608 166.697 588.904 167.524C588.218 168.328 591.304 172.173 596.53 177.338C599.506 180.255 603.147 183.614 607.207 187.077C616.585 195.076 625.059 201.067 628.197 202.051C630.502 205.874 633.679 209.657 637.643 213.039C649.883 223.479 664.768 226.109 670.905 218.914C671.254 218.505 671.567 218.064 671.837 217.612C673.962 222.823 677.326 227.624 681.901 231.527C684.527 233.767 687.375 235.552 690.353 236.917C690.504 240.002 691.261 243.048 692.568 245.88C689.369 256.453 696.113 271.995 709.868 283.727C711.773 285.352 713.748 286.835 715.738 288.166C715.657 288.261 715.554 288.338 715.479 288.425C710.222 294.589 713.729 306.208 723.321 314.39C729.58 319.729 736.889 322.288 742.666 321.683C745.711 321.375 748.342 320.183 750.164 318.062C750.88 318.697 751.602 319.326 752.359 319.972C763.164 329.188 773.152 335.207 774.667 333.43C776.204 331.659 768.692 322.737 757.887 313.521Z" fill="#EBEBEB"/>
<path d="M871.391 355.437C861.536 365.776 843.755 372.645 823.499 372.645C792.459 372.645 767.323 356.523 767.323 336.623C767.323 336.316 767.395 336.009 767.395 335.726C761.539 336.41 755.469 336.788 749.304 336.788C704.792 336.788 667.326 318.47 656.424 293.637C649.449 290.427 643.165 285.941 637.952 280.418C630.193 282.613 622.004 283.817 613.506 283.817C598.701 283.817 584.728 280.182 572.422 273.855C572.66 275.13 572.755 276.452 572.755 277.774C572.755 301.002 540.645 319.816 501.06 319.816C488.23 319.816 476.233 317.809 465.807 314.339C458.333 317.502 432.911 319.816 402.562 319.816C389.423 319.816 377.235 319.367 367 318.635C373.927 311.53 385.686 301.309 397.421 299.302C415.844 296.139 425.366 306.856 425.366 306.856C425.366 306.856 422.176 264.649 460.261 267.789C492.181 270.432 487.563 291.206 485.231 297.839C487.206 293.637 493.49 284.667 509.748 288.538C521.221 291.3 525.244 298.004 526.577 303.528C526.815 294.534 529.195 281.386 540.859 280.984C544.977 280.843 548.167 281.291 550.642 281.999C546.334 275.531 542.906 264.932 547.214 248.88C555.427 218.075 579.587 212.41 599.225 211.111C618.91 209.86 626.527 219.303 637.31 231.884C643.475 239.084 644.784 251.454 644.784 260.707C649.426 258.11 660.256 257.827 683.655 264.625C739.33 280.748 717.884 316.464 717.312 317.455C718.407 316.629 741.449 299.515 769.965 310.586C795.363 320.429 794.34 339.361 792.364 344.909C795.482 341.745 805.361 335.655 823.285 344.578C844.493 355.083 830.33 367.051 826.641 369.813C831.949 366.39 861.275 347.883 871.391 355.437Z" fill="#F5F5F5"/>
<rect x="344" y="124" width="82.8794" height="82.8794" rx="41.4397" fill="#E31235"/>
<g clip-path="url(#clip1)">
<path d="M384.744 150.945C378.483 150.945 373.244 156.183 373.244 162.445V168.195L369.41 175.861H400.077L396.244 168.195V162.445C396.244 156.183 391.005 150.945 384.744 150.945Z" stroke="white" stroke-width="2.55556" stroke-miterlimit="6"/>
<path d="M381.038 151.072C381.038 148.9 382.699 147.239 384.871 147.239C387.043 147.239 388.704 148.9 388.704 151.072M390.621 175.989C390.621 179.183 388.065 181.739 384.871 181.739C381.677 181.739 379.121 179.183 379.121 175.989H390.621Z" stroke="white" stroke-width="2.55556" stroke-miterlimit="6" stroke-linecap="round"/>
</g>
<path d="M264.045 202.566C263.6 203.813 262.955 208.211 264.166 211.084C265.389 213.953 271.992 218.474 273.168 218.725C274.345 218.976 280.803 222.441 280.803 222.441L287.515 221.587C308.132 241.597 328.702 247.894 330.652 248.521C330.761 248.554 330.866 248.615 330.959 248.681L395.356 289.658L495.5 280C489.911 278.027 402.73 229.901 393.21 221.696C378.185 208.757 366.142 192.755 365.227 191.531C365.193 191.472 365.163 191.427 365.128 191.368C353.286 167.45 350.881 163.954 342.943 157.485C335.005 151.016 319.776 146.583 315.308 145.062C311.075 143.614 298.858 136.246 297.616 135.485C297.544 135.44 297.485 135.39 297.426 135.341L287.117 125.154C286.655 124.711 284.076 125.282 283.64 125.756C282.622 126.879 281.9 128.012 281.215 129.454C280.98 129.941 280.855 130.783 280.804 131.838L272.776 133.484C272.776 133.484 266.95 137.477 263.629 143.013C260.309 148.548 260.892 152.745 261.18 154.172C261.46 155.616 262.521 156.776 262.521 156.776L260.026 160.274L258.788 166.335L259.447 169.469L263.607 176.154L259.395 179.813C259.395 179.813 257.537 182.656 257.632 184.809C257.73 186.974 258.433 190.233 259.03 191.343C259.639 192.449 267.893 198.585 267.893 198.585C267.893 198.585 264.477 201.323 264.045 202.566Z" fill="white"/>
<path d="M330.761 248.438C334.103 250.825 390.186 285.444 395.643 289.579L407.582 285.447C402.355 281.093 347.532 245.968 342.672 241.108C340.251 238.682 338.706 235.533 338.299 232.13L337.4 224.68C337.4 224.68 317.215 202.782 317.657 180.679C316.632 176.061 314.326 168.454 314.326 168.454L294.515 156.456L285.84 147.453L291.83 174.208C291.83 174.208 297.983 175.147 300.28 177.574C302.576 180.001 304.055 182.122 304 184.481C304 184.481 304.219 187.626 302.336 189.301C304.346 189.628 307.154 191.444 307.154 191.444L309.293 194.219C309.293 194.219 310.91 197.176 310.469 199.667C310.029 202.159 311.777 202.577 307.158 205.198C305.922 206.648 305.308 206.567 305.308 206.567L300.946 206.171L304.934 208.013C304.934 208.013 307.831 209.644 308.197 210.693C308.564 211.743 309.801 212.772 308.518 214.967C307.247 217.158 305.14 218.629 305.14 218.629L299.636 220.394L287.909 221.819C287.909 221.819 299.389 232.47 304.884 235.555C308.896 238.943 323.017 246.496 330.761 248.438Z" fill="#DFDEE2"/>
<path d="M339.813 160.958C342.996 164.242 354.483 177.46 357.734 190.094C360.973 202.733 374.078 213.793 386.347 221.178C389.032 222.799 395.427 225.658 401.061 228.977C406.043 231.905 485.406 281.443 491.123 282.281C491.211 282.293 497 280.5 497 280.5C494.056 279.655 421.022 233.63 411.399 231.229C409.507 230.762 404.879 229.408 399.68 226.176C393.263 222.175 386.049 215.088 379.445 208.153C374.957 203.443 368.414 196.403 365.376 191.612C361.994 184.599 359.963 181.056 359.963 181.056C359.963 181.056 352.373 162.903 340.362 155.416C332.667 150.47 330.218 150.364 324.007 148.03C321.583 147.117 317.356 145.875 314.447 144.612C309.888 142.617 306.763 140.573 305.132 139.737C303.741 139.027 313.976 145.98 313.976 145.98C313.976 145.98 336.619 157.677 339.813 160.958Z" fill="#DFDEE2"/>
<path d="M275.932 132.386L273.163 133.638L273.445 140.278L278.023 143.372L278.905 138.389L275.932 132.386Z" fill="#DFDEE2"/>
<path d="M280.297 163.38L280.041 165.163L282.698 168.626L281.911 162.177L280.297 163.38Z" fill="#DFDEE2"/>
<path d="M260.457 73.1452L284.933 176.543L292.107 174.866L267.453 70.7185L260.457 73.1452Z" fill="white"/>
<path d="M292.482 175.101L284.707 176.93L260.095 72.948L267.676 70.3187L267.752 70.6562L292.482 175.101ZM285.166 176.169L291.734 174.633L267.23 71.1171L260.817 73.3413L285.166 176.169Z" fill="#A4A4A4"/>
<path d="M283.932 178.42L282.475 168.391L287.033 173.578L292.769 174.491L293.788 175.735L291.594 177.812L283.932 178.42Z" fill="white"/>
<path d="M274.503 142.53L275.537 141.737C275.537 141.737 280.455 144.568 281.398 146.873C282.34 149.178 284.864 154.742 284.127 157.629C283.39 160.516 283.368 162.134 279.178 164.314C278.055 161.931 278.018 156.821 278.018 156.821L273.645 143.429L274.503 142.53Z" fill="white"/>
<path d="M394.968 289.87L330.693 248.914C330.621 248.868 330.55 248.823 330.47 248.795L330.344 248.754C324.987 247.034 306.038 240.023 287.219 221.755L287.65 221.312C306.367 239.489 325.208 246.467 330.531 248.171L330.657 248.211C330.8 248.26 330.934 248.326 331.061 248.408L395.319 289.356L394.968 289.87Z" fill="#A4A4A4"/>
<path d="M286.891 148.771L307.788 141.533C303.209 139.013 298.453 136.148 297.703 135.68C297.632 135.634 297.573 135.585 297.513 135.535L287.186 125.338C286.724 124.895 284.144 125.467 283.708 125.94C282.69 127.064 281.967 128.197 281.283 129.639C280.27 131.741 281.182 140.646 282.662 143.65C283.208 144.736 284.928 146.705 286.891 148.771Z" fill="white"/>
<path d="M503.317 284.596C502.24 284.226 419.225 234.379 417.687 233.93C411.01 231.981 400.914 229.028 393.239 222.421C378.336 209.571 366.506 193.935 365.211 192.183C365.16 192.116 365.121 192.045 365.083 191.975C353.457 168.49 350.975 164.697 342.984 158.185C336.029 152.52 323.501 148.433 317.486 146.465C316.681 146.197 315.99 145.974 315.453 145.795C311.194 144.34 299.066 137.004 297.702 136.173C297.614 136.119 297.538 136.061 297.457 135.991L287.141 125.772C286.828 125.516 284.475 125.966 284.114 126.371C283.167 127.413 282.458 128.499 281.739 129.995C280.793 131.962 281.693 140.815 283.131 143.737C284.504 146.513 293.754 155.195 294.804 156.163C294.846 156.204 294.884 156.233 294.934 156.258L313.445 167.817C313.769 168.027 314.008 168.351 314.097 168.727L317.443 183.11C317.483 183.264 317.493 183.414 317.475 183.561C317.319 185.352 316.505 201.805 335.324 225.519L334.847 225.908C315.878 202.008 316.709 185.325 316.869 183.504C316.88 183.416 316.866 183.337 316.848 183.245L313.503 168.862C313.454 168.641 313.317 168.45 313.124 168.335L294.6 156.78C294.524 156.722 294.453 156.677 294.372 156.606C293.315 155.613 283.988 146.873 282.564 143.989C280.997 140.818 280.125 131.885 281.163 129.704C281.906 128.158 282.652 127.017 283.64 125.932C284.034 125.502 285.529 125.111 286.509 125.08C287.017 125.058 287.352 125.138 287.555 125.32L297.871 135.539C297.914 135.581 297.952 135.61 298.007 135.647C299.371 136.478 311.444 143.777 315.64 145.212C316.177 145.391 316.856 145.618 317.656 145.873C323.717 147.854 336.32 151.957 343.361 157.704C351.448 164.295 353.951 168.109 365.629 191.702C365.642 191.739 365.672 191.785 365.698 191.818C366.988 193.558 378.784 209.136 393.632 221.949C401.193 228.469 411.214 231.406 417.841 233.331C419.395 233.788 502.41 283.634 503.5 284L503.317 284.596Z" fill="#A4A4A4"/>
<path d="M294.781 135.553C293.015 136.164 290.998 135.699 289.665 134.354L287.297 131.965C286.891 131.559 286.633 131.018 286.574 130.45L286.118 126.587L286.734 126.514L287.19 130.377C287.242 130.807 287.44 131.215 287.741 131.517L290.108 133.906C291.357 135.169 293.272 135.543 294.883 134.845L295.015 134.785L295.27 135.356L295.138 135.416C295.018 135.471 294.893 135.514 294.781 135.553Z" fill="#A4A4A4"/>
<path d="M297.563 157.672L296.941 157.649C296.953 157.364 297.155 150.707 300.252 148.15L300.643 148.631C297.76 151.002 297.566 157.601 297.563 157.672Z" fill="#A4A4A4"/>
<path d="M295.73 155.815L295.114 155.846C295.109 155.791 295.044 154.328 295.755 152.849L296.31 153.12C295.664 154.464 295.726 155.802 295.73 155.815Z" fill="#A4A4A4"/>
<path d="M337.77 174.108C326.908 177.573 316.934 172.208 316.833 172.159L317.13 171.607C317.231 171.656 326.982 176.901 337.577 173.514L337.77 174.108Z" fill="#A4A4A4"/>
<path d="M335.225 181.996C325.541 184.463 317.792 178.585 317.716 178.527L318.088 178.033C318.164 178.091 325.681 183.784 335.057 181.395L335.225 181.996Z" fill="#A4A4A4"/>
<path d="M340.061 189.96C329.276 193.397 318.974 186.086 318.877 186.007L319.232 185.505C319.33 185.584 329.387 192.713 339.868 189.367L340.061 189.96Z" fill="#A4A4A4"/>
<path d="M275.762 166.228C275.301 166.387 274.94 166.47 274.719 166.476C274.039 166.487 273.121 165.614 271.398 163.954C269.675 162.294 267.529 160.221 265.603 159.458C261.865 157.977 259.958 153.592 260.935 148.798C261.901 144.092 268.947 135.349 272.499 133.657C273.037 133.401 273.705 133.156 274.494 132.939L274.661 133.539C273.897 133.748 273.267 133.98 272.766 134.223C269.392 135.825 262.457 144.446 261.538 148.926C260.611 153.422 262.375 157.52 265.82 158.878C267.859 159.686 270.047 161.801 271.813 163.503C273.01 164.658 274.251 165.854 274.693 165.841C275.931 165.833 282.5 162.677 283.442 159.422C284.464 155.916 283.254 149.371 279.889 145.603C276.388 141.686 271.482 139.894 271.436 139.882L271.635 139.295C271.84 139.364 276.747 141.155 280.345 145.193C283.897 149.176 285.114 155.859 284.025 159.613C283.187 162.607 278.164 165.397 275.762 166.228Z" fill="#A4A4A4"/>
<path d="M275.001 166.178L274.388 166.139L275.111 154.626C274.52 154.13 271.83 151.895 270.275 151.635C267.52 152.686 268.291 158.135 268.301 158.201L267.689 158.287C267.656 158.032 266.812 152.175 270.133 151.026L270.207 151L270.278 151.003C272.179 151.256 275.483 154.133 275.626 154.265L275.745 154.364L275.001 166.178Z" fill="#A4A4A4"/>
<path d="M312.695 212.659L312.075 212.72C310.987 200.93 311.68 170.56 311.688 170.263L312.309 170.286C312.297 170.57 311.607 200.911 312.695 212.659Z" fill="#A4A4A4"/>
<path d="M306.422 188.882L305.808 188.801C306.61 182.429 309.424 170.514 309.451 170.392L310.058 170.532C310.031 170.654 307.22 182.54 306.422 188.882Z" fill="#A4A4A4"/>
<path d="M282.416 171.453C281.401 171.468 278.267 172.061 277.569 172.303L277.363 171.714C278.112 171.455 281.337 170.843 282.411 170.837L282.416 171.453Z" fill="#A4A4A4"/>
<path d="M274.037 188.478L273.448 188.668C273.426 188.606 271.682 182.887 277.146 179.595L277.471 180.127C272.42 183.164 273.963 188.266 274.037 188.478Z" fill="#A4A4A4"/>
<path d="M271.366 185.587L270.852 185.232C270.917 185.139 270.957 184.775 271.006 184.435C271.177 183.044 271.487 180.455 274.532 178.462L274.87 178.991C272.065 180.83 271.783 183.143 271.621 184.517C271.558 185.016 271.513 185.368 271.366 185.587Z" fill="#A4A4A4"/>
<path d="M302.119 189.275L301.523 189.088C301.531 189.071 301.949 187.748 302.529 186.089C302.72 185.518 302.528 184.686 301.936 183.671C301.379 182.714 300.462 182.007 299.393 181.745C294.411 180.51 293.686 180.592 293.586 180.627C293.449 180.674 292.973 180.909 291.514 182.129C290.747 182.773 290.247 183.661 290.104 184.651C289.705 187.468 289.483 189.312 289.489 189.731L288.863 189.737C288.854 189.151 289.195 186.607 289.485 184.557C289.647 183.42 290.219 182.381 291.105 181.639C292.803 180.224 293.227 180.078 293.364 180.03C293.538 179.97 294.074 179.784 299.526 181.124C300.749 181.43 301.826 182.236 302.461 183.335C303.143 184.53 303.363 185.52 303.095 186.272C302.537 187.952 302.114 189.262 302.119 189.275Z" fill="#A4A4A4"/>
<path d="M299.561 191.863L297.096 192.716L274.948 189.895C272.657 189.608 270.639 188.302 269.424 186.339L259.828 170.877C258.776 169.181 258.365 167.165 258.681 165.191L259.179 162.061C259.422 160.519 260.721 158.963 261.499 158.035C261.638 157.875 261.757 157.735 261.843 157.622L261.904 157.558L262.779 156.905L263.149 157.408L262.308 158.035C262.222 158.149 262.116 158.284 261.985 158.428C261.247 159.313 260.019 160.79 259.798 162.156L259.287 165.29C259.003 167.112 259.378 168.987 260.357 170.554L269.948 186.004C271.069 187.817 272.919 188.999 275.021 189.267L297.028 192.081L299.356 191.276C301.161 190.651 302.541 189.248 303.151 187.439L303.354 186.822C303.988 184.921 303.705 182.791 302.595 181.128C301.348 179.275 299.333 176.86 296.794 175.861C292.144 174.049 287.065 173.887 287.023 173.887L286.881 173.88L286.788 173.772L279.757 165.58L279.968 163.265L280.586 163.317L280.409 165.369L287.18 173.258C288.044 173.295 292.708 173.588 297.019 175.264C299.713 176.309 301.821 178.831 303.111 180.768C304.332 182.588 304.643 184.919 303.949 187.009L303.746 187.626C303.056 189.645 301.54 191.179 299.561 191.863Z" fill="#A4A4A4"/>
<path d="M305.568 206.952L277.788 205.022L277.721 204.99C277.161 204.664 264.061 196.885 260.13 192.86C256.136 188.773 257.368 183.467 258.456 180.664C259.171 178.832 260.949 177.769 262.239 176.986C262.818 176.645 263.297 176.339 263.482 176.107L263.976 176.483C263.726 176.808 263.209 177.127 262.564 177.518C261.34 178.25 259.67 179.263 259.027 180.901C257.987 183.561 256.813 188.595 260.566 192.429C264.302 196.254 276.952 203.825 277.971 204.426L305.391 206.326C306.581 205.536 309.463 203.515 309.875 202.657C310.385 201.598 310.095 196.369 309.279 194.871C308.502 193.443 305.794 190.285 302.391 189.611L302.511 188.995C306.136 189.704 309.009 193.057 309.829 194.568C310.748 196.241 311.021 201.7 310.43 202.928C309.856 204.122 306.08 206.621 305.646 206.897L305.568 206.952Z" fill="#A4A4A4"/>
<path d="M307.615 203.839L307.06 203.569C308.144 201.314 307.772 197.768 307.654 196.91C306.79 196.634 303.128 195.503 301.694 195.312C300.464 195.148 298.269 196.539 297.389 197.18L296.586 203.56L298.411 204.668L298.093 205.198L295.915 203.876L296.808 196.834L296.907 196.758C297.026 196.66 299.973 194.462 301.767 194.683C303.461 194.897 307.845 196.297 308.022 196.363L308.211 196.424L308.234 196.612C308.271 196.796 308.926 201.114 307.615 203.839Z" fill="#A4A4A4"/>
<path d="M299.79 219.23L297.612 217.907L298.246 211.403L298.387 211.326C298.528 211.249 301.787 209.546 303.544 209.78C305.268 209.997 307.192 211.071 307.276 211.112L307.415 211.19L307.443 211.349C307.458 211.512 307.947 215.355 306.276 216.929L305.852 216.473C307.124 215.276 306.923 212.301 306.854 211.581C306.378 211.339 304.826 210.571 303.483 210.405C302.106 210.221 299.492 211.491 298.837 211.816L298.283 217.591L300.125 218.707L299.79 219.23Z" fill="#A4A4A4"/>
<path d="M303.334 219.798C302.985 219.919 302.619 220.031 302.225 220.14C297.34 221.507 282.189 222.78 281.547 222.82L281.463 222.82L271.498 218.189C271.27 218.015 265.877 214.003 264.5 211.899C263.089 209.736 262.706 204.959 264.34 202.079C265.254 200.458 266.787 199.17 267.915 198.359L268.273 198.866C267.199 199.63 265.732 200.868 264.867 202.387C263.355 205.057 263.709 209.591 265 211.571C266.261 213.506 271.41 217.377 271.82 217.67L281.55 222.187C282.784 222.083 297.384 220.833 302.027 219.535C306.77 218.202 307.879 216.178 308.339 214.377L308.371 214.268C308.757 212.774 309.242 210.922 303.391 207.841C302.571 207.409 301.734 207.011 300.898 206.656L301.143 206.08C301.996 206.444 302.85 206.85 303.675 207.294C309.967 210.601 309.384 212.809 308.97 214.425L308.939 214.534C308.535 216.259 307.482 218.363 303.334 219.798Z" fill="#A4A4A4"/>
<path d="M281.132 203.414L280.514 203.362C280.767 200.611 283.709 194.449 283.838 194.18L284.393 194.451C284.373 194.514 281.366 200.768 281.132 203.414Z" fill="#A4A4A4"/>
<path d="M278.466 201.948L277.851 201.866C278.12 199.798 279.571 194.923 280.211 193.959L280.725 194.314C280.13 195.206 278.715 199.984 278.466 201.948Z" fill="#A4A4A4"/>
<path d="M281.323 219.755L280.738 219.957C280.119 218.182 281.266 211.483 281.304 211.19L281.914 211.301C281.601 213.202 280.856 218.417 281.323 219.755Z" fill="#A4A4A4"/>
<path d="M291.402 170.963L290.815 170.76L292.911 164.458L293.741 157.964L294.355 158.046L293.502 164.632L291.402 170.963Z" fill="#A4A4A4"/>
<path d="M369.478 79.3278C333.6 79.6635 303.968 104.618 268.103 104.95C262.207 81.6542 256.295 58.3507 250.399 35.0553C286.282 34.7322 315.91 9.7649 351.775 9.43354C357.683 32.7246 363.583 56.0324 369.478 79.3278Z" fill="white" stroke="#A4A4A4" stroke-width="0.998848" stroke-miterlimit="10"/>
<path d="M253.215 41.3311C274.988 57.8229 295.308 68.5447 315.619 79.2833C327.385 56.4475 339.152 33.6118 352.377 16.5166C352.346 16.387 346.859 28.601 346.538 29.4419C346.164 30.1326 343.68 35.3427 343.689 38.0484C343.627 40.5119 333.16 52.8634 332.079 55.0898C330.949 57.0948 329.146 66.6166 327.054 69.6281C324.949 72.6019 319.578 79.8639 318.63 80.9497C317.678 82.0231 316.28 84.5418 314.083 83.4076C311.89 82.2859 308.086 78.5079 308.086 78.5079C305.94 77.2015 303.794 75.895 301.644 74.5761C286.974 66.4746 272.138 57.6585 256.577 46.0056C255.451 44.4587 254.333 42.8949 253.215 41.3311Z" fill="#DFDEE2"/>
<path d="M354.953 65.6446C346.502 59.9769 338.237 55.0435 330.079 50.494L354.953 65.6446Z" fill="white"/>
<path d="M354.953 65.6446C346.502 59.9769 338.237 55.0435 330.079 50.494" stroke="#A4A4A4" stroke-width="0.998848" stroke-miterlimit="10" stroke-linecap="round" stroke-linejoin="round"/>
<path d="M275.271 89.7377C280.371 82.1527 285.273 73.8371 290.093 65.1289L275.271 89.7377Z" fill="white"/>
<path d="M275.271 89.7377C280.371 82.1527 285.273 73.8371 290.093 65.1289" stroke="#A4A4A4" stroke-width="0.998848" stroke-miterlimit="10" stroke-linecap="round" stroke-linejoin="round"/>
<path d="M251.637 40.2865C273.878 57.1267 294.561 67.7904 315.228 78.4459L251.637 40.2865Z" fill="white"/>
<path d="M251.637 40.2865C273.878 57.1267 294.561 67.7904 315.228 78.4459" stroke="#A4A4A4" stroke-width="0.998848" stroke-miterlimit="10" stroke-linecap="round" stroke-linejoin="round"/>
<path d="M353.192 14.5434C339.55 31.6762 327.478 54.9851 315.397 78.3108L353.192 14.5434Z" fill="white"/>
<path d="M353.192 14.5434C339.55 31.6762 327.478 54.9851 315.397 78.3108" stroke="#A4A4A4" stroke-width="0.998848" stroke-miterlimit="10" stroke-linecap="round" stroke-linejoin="round"/>
<rect x="231" y="29.4166" width="38" height="38" rx="19" transform="rotate(-11.2549 231 29.4166)" fill="#E31235"/>
<path d="M257.455 53.3944L254.284 54.0253L251.236 38.7086L246.877 41.2379L246.342 38.5519L253.24 34.3325L253.646 34.2517L257.455 53.3944Z" fill="white"/>
</g>
<defs>
<clipPath id="clip0">
<rect width="774" height="280" rx="8" fill="white"/>
</clipPath>
<clipPath id="clip1">
<rect width="35.2667" height="37.3111" fill="white" transform="translate(367.111 145.833)"/>
</clipPath>
</defs>
</svg>
